%FSLAX45Y45*%
G04 Gerber Fmt 4.5, Leading zero omitted, Abs format (unit mm)*
G04 Created by KiCad (PCBNEW 6.0.1) date 2022-02-15 02:13:21*
%MOMM*%
%LPD*%
G01*
G04 APERTURE LIST*
%TA.AperFunction,Profile*%
%ADD10C,0.100000*%
%TD*%
%ADD11C,0.200000*%
G04 APERTURE END LIST*
D10*
X12010000Y-9679000D02*
X12010000Y-5266000D01*
X12010000Y-9708000D02*
X12010000Y-9679000D01*
X12065000Y-9708000D02*
X12010000Y-9708000D01*
X15347000Y-9711000D02*
X12065000Y-9708000D01*
X15347000Y-9637000D02*
X15347000Y-9711000D01*
X15350000Y-7525000D02*
X15347000Y-9637000D01*
X15349000Y-5937000D02*
X15350000Y-7525000D01*
X15349000Y-5577000D02*
X15349000Y-5937000D01*
X15349000Y-5266000D02*
X15349000Y-5577000D01*
X12132000Y-5266000D02*
X15349000Y-5266000D01*
X12010000Y-5266000D02*
X12132000Y-5266000D01*
D11*
X12262619Y-10026476D02*
X12262619Y-9826476D01*
X12310238Y-9826476D01*
X12338809Y-9836000D01*
X12357857Y-9855048D01*
X12367381Y-9874095D01*
X12376905Y-9912190D01*
X12376905Y-9940762D01*
X12367381Y-9978857D01*
X12357857Y-9997905D01*
X12338809Y-10016952D01*
X12310238Y-10026476D01*
X12262619Y-10026476D01*
X12462619Y-10026476D02*
X12462619Y-9893143D01*
X12462619Y-9931238D02*
X12472143Y-9912190D01*
X12481667Y-9902667D01*
X12500714Y-9893143D01*
X12519762Y-9893143D01*
X12586428Y-10026476D02*
X12586428Y-9893143D01*
X12586428Y-9826476D02*
X12576905Y-9836000D01*
X12586428Y-9845524D01*
X12595952Y-9836000D01*
X12586428Y-9826476D01*
X12586428Y-9845524D01*
X12710238Y-10026476D02*
X12691190Y-10016952D01*
X12681667Y-9997905D01*
X12681667Y-9826476D01*
X12815000Y-10026476D02*
X12795952Y-10016952D01*
X12786428Y-9997905D01*
X12786428Y-9826476D01*
X13043571Y-10026476D02*
X13043571Y-9826476D01*
X13110238Y-9969333D01*
X13176905Y-9826476D01*
X13176905Y-10026476D01*
X13357857Y-10026476D02*
X13357857Y-9921714D01*
X13348333Y-9902667D01*
X13329286Y-9893143D01*
X13291190Y-9893143D01*
X13272143Y-9902667D01*
X13357857Y-10016952D02*
X13338809Y-10026476D01*
X13291190Y-10026476D01*
X13272143Y-10016952D01*
X13262619Y-9997905D01*
X13262619Y-9978857D01*
X13272143Y-9959810D01*
X13291190Y-9950286D01*
X13338809Y-9950286D01*
X13357857Y-9940762D01*
X13453095Y-9893143D02*
X13453095Y-10093143D01*
X13453095Y-9902667D02*
X13472143Y-9893143D01*
X13510238Y-9893143D01*
X13529286Y-9902667D01*
X13538809Y-9912190D01*
X13548333Y-9931238D01*
X13548333Y-9988381D01*
X13538809Y-10007429D01*
X13529286Y-10016952D01*
X13510238Y-10026476D01*
X13472143Y-10026476D01*
X13453095Y-10016952D01*
X13634048Y-10007429D02*
X13643571Y-10016952D01*
X13634048Y-10026476D01*
X13624524Y-10016952D01*
X13634048Y-10007429D01*
X13634048Y-10026476D01*
X13634048Y-9902667D02*
X13643571Y-9912190D01*
X13634048Y-9921714D01*
X13624524Y-9912190D01*
X13634048Y-9902667D01*
X13634048Y-9921714D01*
M02*
