G04 #@! TF.GenerationSoftware,KiCad,Pcbnew,6.0.1*
G04 #@! TF.CreationDate,2022-02-15T02:13:11-08:00*
G04 #@! TF.ProjectId,iCE40-SDRAM,69434534-302d-4534-9452-414d2e6b6963,rev?*
G04 #@! TF.SameCoordinates,Original*
G04 #@! TF.FileFunction,Soldermask,Top*
G04 #@! TF.FilePolarity,Negative*
%FSLAX46Y46*%
G04 Gerber Fmt 4.6, Leading zero omitted, Abs format (unit mm)*
G04 Created by KiCad (PCBNEW 6.0.1) date 2022-02-15 02:13:11*
%MOMM*%
%LPD*%
G01*
G04 APERTURE LIST*
G04 Aperture macros list*
%AMRoundRect*
0 Rectangle with rounded corners*
0 $1 Rounding radius*
0 $2 $3 $4 $5 $6 $7 $8 $9 X,Y pos of 4 corners*
0 Add a 4 corners polygon primitive as box body*
4,1,4,$2,$3,$4,$5,$6,$7,$8,$9,$2,$3,0*
0 Add four circle primitives for the rounded corners*
1,1,$1+$1,$2,$3*
1,1,$1+$1,$4,$5*
1,1,$1+$1,$6,$7*
1,1,$1+$1,$8,$9*
0 Add four rect primitives between the rounded corners*
20,1,$1+$1,$2,$3,$4,$5,0*
20,1,$1+$1,$4,$5,$6,$7,0*
20,1,$1+$1,$6,$7,$8,$9,0*
20,1,$1+$1,$8,$9,$2,$3,0*%
G04 Aperture macros list end*
%ADD10RoundRect,0.237500X-0.300000X-0.237500X0.300000X-0.237500X0.300000X0.237500X-0.300000X0.237500X0*%
%ADD11RoundRect,0.237500X0.300000X0.237500X-0.300000X0.237500X-0.300000X-0.237500X0.300000X-0.237500X0*%
%ADD12R,1.510000X0.458000*%
%ADD13O,1.700000X1.700000*%
%ADD14R,1.700000X1.700000*%
G04 APERTURE END LIST*
D10*
X128912500Y-57090000D03*
X127187500Y-57090000D03*
D11*
X138265000Y-85240000D03*
X136540000Y-85240000D03*
X136545000Y-71230000D03*
X138270000Y-71230000D03*
X138270000Y-64440000D03*
X136545000Y-64440000D03*
D12*
X140135000Y-64440000D03*
X140135000Y-65240000D03*
X140135000Y-66040000D03*
X140135000Y-66840000D03*
X140135000Y-67640000D03*
X140135000Y-68440000D03*
X140135000Y-69240000D03*
X140135000Y-70040000D03*
X140135000Y-70840000D03*
X140135000Y-71640000D03*
X140135000Y-72440000D03*
X140135000Y-73240000D03*
X140135000Y-74040000D03*
X140135000Y-74840000D03*
X140135000Y-75640000D03*
X140135000Y-76440000D03*
X140135000Y-77240000D03*
X140135000Y-78040000D03*
X140135000Y-78840000D03*
X140135000Y-79640000D03*
X140135000Y-80440000D03*
X140135000Y-81240000D03*
X140135000Y-82040000D03*
X140135000Y-82840000D03*
X140135000Y-83640000D03*
X140135000Y-84440000D03*
X140135000Y-85240000D03*
X151635000Y-85240000D03*
X151635000Y-84440000D03*
X151635000Y-83640000D03*
X151635000Y-82840000D03*
X151635000Y-82040000D03*
X151635000Y-81240000D03*
X151635000Y-80440000D03*
X151635000Y-79640000D03*
X151635000Y-78840000D03*
X151635000Y-78040000D03*
X151635000Y-77240000D03*
X151635000Y-76440000D03*
X151635000Y-75640000D03*
X151635000Y-74840000D03*
X151635000Y-74040000D03*
X151635000Y-73240000D03*
X151635000Y-72440000D03*
X151635000Y-71640000D03*
X151635000Y-70840000D03*
X151635000Y-70040000D03*
X151635000Y-69240000D03*
X151635000Y-68440000D03*
X151635000Y-67640000D03*
X151635000Y-66840000D03*
X151635000Y-66040000D03*
X151635000Y-65240000D03*
X151635000Y-64440000D03*
D13*
X122000000Y-95190000D03*
X124540000Y-95190000D03*
X122000000Y-92650000D03*
X124540000Y-92650000D03*
X122000000Y-90110000D03*
X124540000Y-90110000D03*
X122000000Y-87570000D03*
X124540000Y-87570000D03*
X122000000Y-85030000D03*
X124540000Y-85030000D03*
X122000000Y-82490000D03*
X124540000Y-82490000D03*
X122000000Y-79950000D03*
X124540000Y-79950000D03*
X122000000Y-77410000D03*
X124540000Y-77410000D03*
X122000000Y-74870000D03*
X124540000Y-74870000D03*
X122000000Y-72330000D03*
X124540000Y-72330000D03*
X122000000Y-69790000D03*
X124540000Y-69790000D03*
X122000000Y-67250000D03*
X124540000Y-67250000D03*
X122000000Y-64710000D03*
X124540000Y-64710000D03*
X122000000Y-62170000D03*
X124540000Y-62170000D03*
X122000000Y-59630000D03*
X124540000Y-59630000D03*
X122000000Y-57090000D03*
X124540000Y-57090000D03*
X122000000Y-54550000D03*
D14*
X124540000Y-54550000D03*
M02*
