%FSLAX45Y45*%
G04 Gerber Fmt 4.5, Leading zero omitted, Abs format (unit mm)*
G04 Created by KiCad (PCBNEW 6.0.1) date 2022-02-15 02:13:21*
%MOMM*%
%LPD*%
G01*
G04 APERTURE LIST*
%TA.AperFunction,Profile*%
%ADD10C,0.100000*%
%TD*%
%ADD11C,0.200000*%
%ADD12C,0.030000*%
%ADD13C,0.100000*%
G04 APERTURE END LIST*
D10*
X12010000Y-9679000D02*
X12010000Y-5266000D01*
X12010000Y-9708000D02*
X12010000Y-9679000D01*
X12065000Y-9708000D02*
X12010000Y-9708000D01*
X15347000Y-9711000D02*
X12065000Y-9708000D01*
X15347000Y-9637000D02*
X15347000Y-9711000D01*
X15350000Y-7525000D02*
X15347000Y-9637000D01*
X15349000Y-5937000D02*
X15350000Y-7525000D01*
X15349000Y-5577000D02*
X15349000Y-5937000D01*
X15349000Y-5266000D02*
X15349000Y-5577000D01*
X12132000Y-5266000D02*
X15349000Y-5266000D01*
X12010000Y-5266000D02*
X12132000Y-5266000D01*
D11*
D12*
X12989000Y-5694000D02*
X13019000Y-5724000D01*
X13019000Y-5694000D02*
X12989000Y-5724000D01*
X13527000Y-6429000D02*
X13557000Y-6459000D01*
X13557000Y-6429000D02*
X13527000Y-6459000D01*
X13527000Y-7108000D02*
X13557000Y-7138000D01*
X13557000Y-7108000D02*
X13527000Y-7138000D01*
X13638000Y-8651000D02*
X13668000Y-8681000D01*
X13668000Y-8651000D02*
X13638000Y-8681000D01*
X14129500Y-6429000D02*
X14159500Y-6459000D01*
X14159500Y-6429000D02*
X14129500Y-6459000D01*
X14129500Y-6588000D02*
X14159500Y-6618000D01*
X14159500Y-6588000D02*
X14129500Y-6618000D01*
X14130500Y-6829000D02*
X14160500Y-6859000D01*
X14160500Y-6829000D02*
X14130500Y-6859000D01*
X14130500Y-7309000D02*
X14160500Y-7339000D01*
X14160500Y-7309000D02*
X14130500Y-7339000D01*
X14130500Y-7869000D02*
X14160500Y-7899000D01*
X14160500Y-7869000D02*
X14130500Y-7899000D01*
X14131500Y-7069000D02*
X14161500Y-7099000D01*
X14161500Y-7069000D02*
X14131500Y-7099000D01*
X14131500Y-7469000D02*
X14161500Y-7499000D01*
X14161500Y-7469000D02*
X14131500Y-7499000D01*
X14131500Y-8509000D02*
X14161500Y-8539000D01*
X14161500Y-8509000D02*
X14131500Y-8539000D01*
X15015500Y-7789000D02*
X15045500Y-7819000D01*
X15045500Y-7789000D02*
X15015500Y-7819000D01*
X15016500Y-6429000D02*
X15046500Y-6459000D01*
X15046500Y-6429000D02*
X15016500Y-6459000D01*
X15016500Y-6589000D02*
X15046500Y-6619000D01*
X15046500Y-6589000D02*
X15016500Y-6619000D01*
X15016500Y-6829000D02*
X15046500Y-6859000D01*
X15046500Y-6829000D02*
X15016500Y-6859000D01*
X15016500Y-6989000D02*
X15046500Y-7019000D01*
X15046500Y-6989000D02*
X15016500Y-7019000D01*
X15016500Y-7069000D02*
X15046500Y-7099000D01*
X15046500Y-7069000D02*
X15016500Y-7099000D01*
X15016500Y-7229000D02*
X15046500Y-7259000D01*
X15046500Y-7229000D02*
X15016500Y-7259000D01*
X15016500Y-7309000D02*
X15046500Y-7339000D01*
X15046500Y-7309000D02*
X15016500Y-7339000D01*
X15016500Y-7469000D02*
X15046500Y-7499000D01*
X15046500Y-7469000D02*
X15016500Y-7499000D01*
X15016500Y-7629000D02*
X15046500Y-7659000D01*
X15046500Y-7629000D02*
X15016500Y-7659000D01*
X15016500Y-7869000D02*
X15046500Y-7899000D01*
X15046500Y-7869000D02*
X15016500Y-7899000D01*
X15016500Y-7949000D02*
X15046500Y-7979000D01*
X15046500Y-7949000D02*
X15016500Y-7979000D01*
X15016500Y-8029000D02*
X15046500Y-8059000D01*
X15046500Y-8029000D02*
X15016500Y-8059000D01*
X15016500Y-8109000D02*
X15046500Y-8139000D01*
X15046500Y-8109000D02*
X15016500Y-8139000D01*
X15016500Y-8189000D02*
X15046500Y-8219000D01*
X15046500Y-8189000D02*
X15016500Y-8219000D01*
X15016500Y-8269000D02*
X15046500Y-8299000D01*
X15046500Y-8269000D02*
X15016500Y-8299000D01*
X15016500Y-8348000D02*
X15046500Y-8378000D01*
X15046500Y-8348000D02*
X15016500Y-8378000D01*
X15016500Y-8429000D02*
X15046500Y-8459000D01*
X15046500Y-8429000D02*
X15016500Y-8459000D01*
X15016500Y-8509000D02*
X15046500Y-8539000D01*
X15046500Y-8509000D02*
X15016500Y-8539000D01*
X15017500Y-6509000D02*
X15047500Y-6539000D01*
X15047500Y-6509000D02*
X15017500Y-6539000D01*
X15017500Y-6749000D02*
X15047500Y-6779000D01*
X15047500Y-6749000D02*
X15017500Y-6779000D01*
D13*
X12250000Y-5455000D02*
G75*
G03*
X12250000Y-5455000I-50000J0D01*
G01*
X12250000Y-5709000D02*
G75*
G03*
X12250000Y-5709000I-50000J0D01*
G01*
X12250000Y-5963000D02*
G75*
G03*
X12250000Y-5963000I-50000J0D01*
G01*
X12250000Y-6217000D02*
G75*
G03*
X12250000Y-6217000I-50000J0D01*
G01*
X12250000Y-6471000D02*
G75*
G03*
X12250000Y-6471000I-50000J0D01*
G01*
X12250000Y-6725000D02*
G75*
G03*
X12250000Y-6725000I-50000J0D01*
G01*
X12250000Y-6979000D02*
G75*
G03*
X12250000Y-6979000I-50000J0D01*
G01*
X12250000Y-7233000D02*
G75*
G03*
X12250000Y-7233000I-50000J0D01*
G01*
X12250000Y-7487000D02*
G75*
G03*
X12250000Y-7487000I-50000J0D01*
G01*
X12250000Y-7741000D02*
G75*
G03*
X12250000Y-7741000I-50000J0D01*
G01*
X12250000Y-7995000D02*
G75*
G03*
X12250000Y-7995000I-50000J0D01*
G01*
X12250000Y-8249000D02*
G75*
G03*
X12250000Y-8249000I-50000J0D01*
G01*
X12250000Y-8503000D02*
G75*
G03*
X12250000Y-8503000I-50000J0D01*
G01*
X12250000Y-8757000D02*
G75*
G03*
X12250000Y-8757000I-50000J0D01*
G01*
X12250000Y-9011000D02*
G75*
G03*
X12250000Y-9011000I-50000J0D01*
G01*
X12250000Y-9265000D02*
G75*
G03*
X12250000Y-9265000I-50000J0D01*
G01*
X12250000Y-9519000D02*
G75*
G03*
X12250000Y-9519000I-50000J0D01*
G01*
X12504000Y-5455000D02*
G75*
G03*
X12504000Y-5455000I-50000J0D01*
G01*
X12504000Y-5709000D02*
G75*
G03*
X12504000Y-5709000I-50000J0D01*
G01*
X12504000Y-5963000D02*
G75*
G03*
X12504000Y-5963000I-50000J0D01*
G01*
X12504000Y-6217000D02*
G75*
G03*
X12504000Y-6217000I-50000J0D01*
G01*
X12504000Y-6471000D02*
G75*
G03*
X12504000Y-6471000I-50000J0D01*
G01*
X12504000Y-6725000D02*
G75*
G03*
X12504000Y-6725000I-50000J0D01*
G01*
X12504000Y-6979000D02*
G75*
G03*
X12504000Y-6979000I-50000J0D01*
G01*
X12504000Y-7233000D02*
G75*
G03*
X12504000Y-7233000I-50000J0D01*
G01*
X12504000Y-7487000D02*
G75*
G03*
X12504000Y-7487000I-50000J0D01*
G01*
X12504000Y-7741000D02*
G75*
G03*
X12504000Y-7741000I-50000J0D01*
G01*
X12504000Y-7995000D02*
G75*
G03*
X12504000Y-7995000I-50000J0D01*
G01*
X12504000Y-8249000D02*
G75*
G03*
X12504000Y-8249000I-50000J0D01*
G01*
X12504000Y-8503000D02*
G75*
G03*
X12504000Y-8503000I-50000J0D01*
G01*
X12504000Y-8757000D02*
G75*
G03*
X12504000Y-8757000I-50000J0D01*
G01*
X12504000Y-9011000D02*
G75*
G03*
X12504000Y-9011000I-50000J0D01*
G01*
X12504000Y-9265000D02*
G75*
G03*
X12504000Y-9265000I-50000J0D01*
G01*
X12504000Y-9519000D02*
G75*
G03*
X12504000Y-9519000I-50000J0D01*
G01*
D11*
X12262619Y-10026476D02*
X12262619Y-9826476D01*
X12310238Y-9826476D01*
X12338809Y-9836000D01*
X12357857Y-9855048D01*
X12367381Y-9874095D01*
X12376905Y-9912190D01*
X12376905Y-9940762D01*
X12367381Y-9978857D01*
X12357857Y-9997905D01*
X12338809Y-10016952D01*
X12310238Y-10026476D01*
X12262619Y-10026476D01*
X12462619Y-10026476D02*
X12462619Y-9893143D01*
X12462619Y-9931238D02*
X12472143Y-9912190D01*
X12481667Y-9902667D01*
X12500714Y-9893143D01*
X12519762Y-9893143D01*
X12586428Y-10026476D02*
X12586428Y-9893143D01*
X12586428Y-9826476D02*
X12576905Y-9836000D01*
X12586428Y-9845524D01*
X12595952Y-9836000D01*
X12586428Y-9826476D01*
X12586428Y-9845524D01*
X12710238Y-10026476D02*
X12691190Y-10016952D01*
X12681667Y-9997905D01*
X12681667Y-9826476D01*
X12815000Y-10026476D02*
X12795952Y-10016952D01*
X12786428Y-9997905D01*
X12786428Y-9826476D01*
X13043571Y-10026476D02*
X13043571Y-9826476D01*
X13110238Y-9969333D01*
X13176905Y-9826476D01*
X13176905Y-10026476D01*
X13357857Y-10026476D02*
X13357857Y-9921714D01*
X13348333Y-9902667D01*
X13329286Y-9893143D01*
X13291190Y-9893143D01*
X13272143Y-9902667D01*
X13357857Y-10016952D02*
X13338809Y-10026476D01*
X13291190Y-10026476D01*
X13272143Y-10016952D01*
X13262619Y-9997905D01*
X13262619Y-9978857D01*
X13272143Y-9959810D01*
X13291190Y-9950286D01*
X13338809Y-9950286D01*
X13357857Y-9940762D01*
X13453095Y-9893143D02*
X13453095Y-10093143D01*
X13453095Y-9902667D02*
X13472143Y-9893143D01*
X13510238Y-9893143D01*
X13529286Y-9902667D01*
X13538809Y-9912190D01*
X13548333Y-9931238D01*
X13548333Y-9988381D01*
X13538809Y-10007429D01*
X13529286Y-10016952D01*
X13510238Y-10026476D01*
X13472143Y-10026476D01*
X13453095Y-10016952D01*
X13634048Y-10007429D02*
X13643571Y-10016952D01*
X13634048Y-10026476D01*
X13624524Y-10016952D01*
X13634048Y-10007429D01*
X13634048Y-10026476D01*
X13634048Y-9902667D02*
X13643571Y-9912190D01*
X13634048Y-9921714D01*
X13624524Y-9912190D01*
X13634048Y-9902667D01*
X13634048Y-9921714D01*
D12*
X11975000Y-10341000D02*
X12005000Y-10371000D01*
X12005000Y-10341000D02*
X11975000Y-10371000D01*
D11*
X12300714Y-10246476D02*
X12319762Y-10246476D01*
X12338809Y-10256000D01*
X12348333Y-10265524D01*
X12357857Y-10284571D01*
X12367381Y-10322667D01*
X12367381Y-10370286D01*
X12357857Y-10408381D01*
X12348333Y-10427429D01*
X12338809Y-10436952D01*
X12319762Y-10446476D01*
X12300714Y-10446476D01*
X12281667Y-10436952D01*
X12272143Y-10427429D01*
X12262619Y-10408381D01*
X12253095Y-10370286D01*
X12253095Y-10322667D01*
X12262619Y-10284571D01*
X12272143Y-10265524D01*
X12281667Y-10256000D01*
X12300714Y-10246476D01*
X12453095Y-10427429D02*
X12462619Y-10436952D01*
X12453095Y-10446476D01*
X12443571Y-10436952D01*
X12453095Y-10427429D01*
X12453095Y-10446476D01*
X12529286Y-10246476D02*
X12653095Y-10246476D01*
X12586428Y-10322667D01*
X12615000Y-10322667D01*
X12634048Y-10332190D01*
X12643571Y-10341714D01*
X12653095Y-10360762D01*
X12653095Y-10408381D01*
X12643571Y-10427429D01*
X12634048Y-10436952D01*
X12615000Y-10446476D01*
X12557857Y-10446476D01*
X12538809Y-10436952D01*
X12529286Y-10427429D01*
X12776905Y-10246476D02*
X12795952Y-10246476D01*
X12815000Y-10256000D01*
X12824524Y-10265524D01*
X12834048Y-10284571D01*
X12843571Y-10322667D01*
X12843571Y-10370286D01*
X12834048Y-10408381D01*
X12824524Y-10427429D01*
X12815000Y-10436952D01*
X12795952Y-10446476D01*
X12776905Y-10446476D01*
X12757857Y-10436952D01*
X12748333Y-10427429D01*
X12738809Y-10408381D01*
X12729286Y-10370286D01*
X12729286Y-10322667D01*
X12738809Y-10284571D01*
X12748333Y-10265524D01*
X12757857Y-10256000D01*
X12776905Y-10246476D01*
X12967381Y-10246476D02*
X12986428Y-10246476D01*
X13005476Y-10256000D01*
X13015000Y-10265524D01*
X13024524Y-10284571D01*
X13034048Y-10322667D01*
X13034048Y-10370286D01*
X13024524Y-10408381D01*
X13015000Y-10427429D01*
X13005476Y-10436952D01*
X12986428Y-10446476D01*
X12967381Y-10446476D01*
X12948333Y-10436952D01*
X12938809Y-10427429D01*
X12929286Y-10408381D01*
X12919762Y-10370286D01*
X12919762Y-10322667D01*
X12929286Y-10284571D01*
X12938809Y-10265524D01*
X12948333Y-10256000D01*
X12967381Y-10246476D01*
X13119762Y-10446476D02*
X13119762Y-10313143D01*
X13119762Y-10332190D02*
X13129286Y-10322667D01*
X13148333Y-10313143D01*
X13176905Y-10313143D01*
X13195952Y-10322667D01*
X13205476Y-10341714D01*
X13205476Y-10446476D01*
X13205476Y-10341714D02*
X13215000Y-10322667D01*
X13234048Y-10313143D01*
X13262619Y-10313143D01*
X13281667Y-10322667D01*
X13291190Y-10341714D01*
X13291190Y-10446476D01*
X13386428Y-10446476D02*
X13386428Y-10313143D01*
X13386428Y-10332190D02*
X13395952Y-10322667D01*
X13415000Y-10313143D01*
X13443571Y-10313143D01*
X13462619Y-10322667D01*
X13472143Y-10341714D01*
X13472143Y-10446476D01*
X13472143Y-10341714D02*
X13481667Y-10322667D01*
X13500714Y-10313143D01*
X13529286Y-10313143D01*
X13548333Y-10322667D01*
X13557857Y-10341714D01*
X13557857Y-10446476D01*
X13948333Y-10236952D02*
X13776905Y-10494095D01*
X14205476Y-10246476D02*
X14224524Y-10246476D01*
X14243571Y-10256000D01*
X14253095Y-10265524D01*
X14262619Y-10284571D01*
X14272143Y-10322667D01*
X14272143Y-10370286D01*
X14262619Y-10408381D01*
X14253095Y-10427429D01*
X14243571Y-10436952D01*
X14224524Y-10446476D01*
X14205476Y-10446476D01*
X14186428Y-10436952D01*
X14176905Y-10427429D01*
X14167381Y-10408381D01*
X14157857Y-10370286D01*
X14157857Y-10322667D01*
X14167381Y-10284571D01*
X14176905Y-10265524D01*
X14186428Y-10256000D01*
X14205476Y-10246476D01*
X14357857Y-10427429D02*
X14367381Y-10436952D01*
X14357857Y-10446476D01*
X14348333Y-10436952D01*
X14357857Y-10427429D01*
X14357857Y-10446476D01*
X14491190Y-10246476D02*
X14510238Y-10246476D01*
X14529286Y-10256000D01*
X14538809Y-10265524D01*
X14548333Y-10284571D01*
X14557857Y-10322667D01*
X14557857Y-10370286D01*
X14548333Y-10408381D01*
X14538809Y-10427429D01*
X14529286Y-10436952D01*
X14510238Y-10446476D01*
X14491190Y-10446476D01*
X14472143Y-10436952D01*
X14462619Y-10427429D01*
X14453095Y-10408381D01*
X14443571Y-10370286D01*
X14443571Y-10322667D01*
X14453095Y-10284571D01*
X14462619Y-10265524D01*
X14472143Y-10256000D01*
X14491190Y-10246476D01*
X14748333Y-10446476D02*
X14634048Y-10446476D01*
X14691190Y-10446476D02*
X14691190Y-10246476D01*
X14672143Y-10275048D01*
X14653095Y-10294095D01*
X14634048Y-10303619D01*
X14938809Y-10446476D02*
X14824524Y-10446476D01*
X14881667Y-10446476D02*
X14881667Y-10246476D01*
X14862619Y-10275048D01*
X14843571Y-10294095D01*
X14824524Y-10303619D01*
X15053095Y-10332190D02*
X15034048Y-10322667D01*
X15024524Y-10313143D01*
X15015000Y-10294095D01*
X15015000Y-10284571D01*
X15024524Y-10265524D01*
X15034048Y-10256000D01*
X15053095Y-10246476D01*
X15091190Y-10246476D01*
X15110238Y-10256000D01*
X15119762Y-10265524D01*
X15129286Y-10284571D01*
X15129286Y-10294095D01*
X15119762Y-10313143D01*
X15110238Y-10322667D01*
X15091190Y-10332190D01*
X15053095Y-10332190D01*
X15034048Y-10341714D01*
X15024524Y-10351238D01*
X15015000Y-10370286D01*
X15015000Y-10408381D01*
X15024524Y-10427429D01*
X15034048Y-10436952D01*
X15053095Y-10446476D01*
X15091190Y-10446476D01*
X15110238Y-10436952D01*
X15119762Y-10427429D01*
X15129286Y-10408381D01*
X15129286Y-10370286D01*
X15119762Y-10351238D01*
X15110238Y-10341714D01*
X15091190Y-10332190D01*
X15205476Y-10246476D02*
X15205476Y-10284571D01*
X15281667Y-10246476D02*
X15281667Y-10284571D01*
X15576905Y-10522667D02*
X15567381Y-10513143D01*
X15548333Y-10484571D01*
X15538809Y-10465524D01*
X15529286Y-10436952D01*
X15519762Y-10389333D01*
X15519762Y-10351238D01*
X15529286Y-10303619D01*
X15538809Y-10275048D01*
X15548333Y-10256000D01*
X15567381Y-10227429D01*
X15576905Y-10217905D01*
X15634048Y-10246476D02*
X15757857Y-10246476D01*
X15691190Y-10322667D01*
X15719762Y-10322667D01*
X15738809Y-10332190D01*
X15748333Y-10341714D01*
X15757857Y-10360762D01*
X15757857Y-10408381D01*
X15748333Y-10427429D01*
X15738809Y-10436952D01*
X15719762Y-10446476D01*
X15662619Y-10446476D01*
X15643571Y-10436952D01*
X15634048Y-10427429D01*
X15824524Y-10246476D02*
X15948333Y-10246476D01*
X15881667Y-10322667D01*
X15910238Y-10322667D01*
X15929286Y-10332190D01*
X15938809Y-10341714D01*
X15948333Y-10360762D01*
X15948333Y-10408381D01*
X15938809Y-10427429D01*
X15929286Y-10436952D01*
X15910238Y-10446476D01*
X15853095Y-10446476D01*
X15834048Y-10436952D01*
X15824524Y-10427429D01*
X16186428Y-10446476D02*
X16186428Y-10246476D01*
X16272143Y-10446476D02*
X16272143Y-10341714D01*
X16262619Y-10322667D01*
X16243571Y-10313143D01*
X16215000Y-10313143D01*
X16195952Y-10322667D01*
X16186428Y-10332190D01*
X16395952Y-10446476D02*
X16376905Y-10436952D01*
X16367381Y-10427429D01*
X16357857Y-10408381D01*
X16357857Y-10351238D01*
X16367381Y-10332190D01*
X16376905Y-10322667D01*
X16395952Y-10313143D01*
X16424524Y-10313143D01*
X16443571Y-10322667D01*
X16453095Y-10332190D01*
X16462619Y-10351238D01*
X16462619Y-10408381D01*
X16453095Y-10427429D01*
X16443571Y-10436952D01*
X16424524Y-10446476D01*
X16395952Y-10446476D01*
X16576905Y-10446476D02*
X16557857Y-10436952D01*
X16548333Y-10417905D01*
X16548333Y-10246476D01*
X16729286Y-10436952D02*
X16710238Y-10446476D01*
X16672143Y-10446476D01*
X16653095Y-10436952D01*
X16643571Y-10417905D01*
X16643571Y-10341714D01*
X16653095Y-10322667D01*
X16672143Y-10313143D01*
X16710238Y-10313143D01*
X16729286Y-10322667D01*
X16738809Y-10341714D01*
X16738809Y-10360762D01*
X16643571Y-10379810D01*
X16815000Y-10436952D02*
X16834048Y-10446476D01*
X16872143Y-10446476D01*
X16891190Y-10436952D01*
X16900714Y-10417905D01*
X16900714Y-10408381D01*
X16891190Y-10389333D01*
X16872143Y-10379810D01*
X16843571Y-10379810D01*
X16824524Y-10370286D01*
X16815000Y-10351238D01*
X16815000Y-10341714D01*
X16824524Y-10322667D01*
X16843571Y-10313143D01*
X16872143Y-10313143D01*
X16891190Y-10322667D01*
X16967381Y-10522667D02*
X16976905Y-10513143D01*
X16995952Y-10484571D01*
X17005476Y-10465524D01*
X17015000Y-10436952D01*
X17024524Y-10389333D01*
X17024524Y-10351238D01*
X17015000Y-10303619D01*
X17005476Y-10275048D01*
X16995952Y-10256000D01*
X16976905Y-10227429D01*
X16967381Y-10217905D01*
D13*
X12005000Y-10620000D02*
G75*
G03*
X12005000Y-10620000I-50000J0D01*
G01*
D11*
X12367381Y-10710476D02*
X12253095Y-10710476D01*
X12310238Y-10710476D02*
X12310238Y-10510476D01*
X12291190Y-10539048D01*
X12272143Y-10558095D01*
X12253095Y-10567619D01*
X12453095Y-10691429D02*
X12462619Y-10700952D01*
X12453095Y-10710476D01*
X12443571Y-10700952D01*
X12453095Y-10691429D01*
X12453095Y-10710476D01*
X12586428Y-10510476D02*
X12605476Y-10510476D01*
X12624524Y-10520000D01*
X12634048Y-10529524D01*
X12643571Y-10548571D01*
X12653095Y-10586667D01*
X12653095Y-10634286D01*
X12643571Y-10672381D01*
X12634048Y-10691429D01*
X12624524Y-10700952D01*
X12605476Y-10710476D01*
X12586428Y-10710476D01*
X12567381Y-10700952D01*
X12557857Y-10691429D01*
X12548333Y-10672381D01*
X12538809Y-10634286D01*
X12538809Y-10586667D01*
X12548333Y-10548571D01*
X12557857Y-10529524D01*
X12567381Y-10520000D01*
X12586428Y-10510476D01*
X12776905Y-10510476D02*
X12795952Y-10510476D01*
X12815000Y-10520000D01*
X12824524Y-10529524D01*
X12834048Y-10548571D01*
X12843571Y-10586667D01*
X12843571Y-10634286D01*
X12834048Y-10672381D01*
X12824524Y-10691429D01*
X12815000Y-10700952D01*
X12795952Y-10710476D01*
X12776905Y-10710476D01*
X12757857Y-10700952D01*
X12748333Y-10691429D01*
X12738809Y-10672381D01*
X12729286Y-10634286D01*
X12729286Y-10586667D01*
X12738809Y-10548571D01*
X12748333Y-10529524D01*
X12757857Y-10520000D01*
X12776905Y-10510476D01*
X12967381Y-10510476D02*
X12986428Y-10510476D01*
X13005476Y-10520000D01*
X13015000Y-10529524D01*
X13024524Y-10548571D01*
X13034048Y-10586667D01*
X13034048Y-10634286D01*
X13024524Y-10672381D01*
X13015000Y-10691429D01*
X13005476Y-10700952D01*
X12986428Y-10710476D01*
X12967381Y-10710476D01*
X12948333Y-10700952D01*
X12938809Y-10691429D01*
X12929286Y-10672381D01*
X12919762Y-10634286D01*
X12919762Y-10586667D01*
X12929286Y-10548571D01*
X12938809Y-10529524D01*
X12948333Y-10520000D01*
X12967381Y-10510476D01*
X13119762Y-10710476D02*
X13119762Y-10577143D01*
X13119762Y-10596190D02*
X13129286Y-10586667D01*
X13148333Y-10577143D01*
X13176905Y-10577143D01*
X13195952Y-10586667D01*
X13205476Y-10605714D01*
X13205476Y-10710476D01*
X13205476Y-10605714D02*
X13215000Y-10586667D01*
X13234048Y-10577143D01*
X13262619Y-10577143D01*
X13281667Y-10586667D01*
X13291190Y-10605714D01*
X13291190Y-10710476D01*
X13386428Y-10710476D02*
X13386428Y-10577143D01*
X13386428Y-10596190D02*
X13395952Y-10586667D01*
X13415000Y-10577143D01*
X13443571Y-10577143D01*
X13462619Y-10586667D01*
X13472143Y-10605714D01*
X13472143Y-10710476D01*
X13472143Y-10605714D02*
X13481667Y-10586667D01*
X13500714Y-10577143D01*
X13529286Y-10577143D01*
X13548333Y-10586667D01*
X13557857Y-10605714D01*
X13557857Y-10710476D01*
X13948333Y-10500952D02*
X13776905Y-10758095D01*
X14205476Y-10510476D02*
X14224524Y-10510476D01*
X14243571Y-10520000D01*
X14253095Y-10529524D01*
X14262619Y-10548571D01*
X14272143Y-10586667D01*
X14272143Y-10634286D01*
X14262619Y-10672381D01*
X14253095Y-10691429D01*
X14243571Y-10700952D01*
X14224524Y-10710476D01*
X14205476Y-10710476D01*
X14186428Y-10700952D01*
X14176905Y-10691429D01*
X14167381Y-10672381D01*
X14157857Y-10634286D01*
X14157857Y-10586667D01*
X14167381Y-10548571D01*
X14176905Y-10529524D01*
X14186428Y-10520000D01*
X14205476Y-10510476D01*
X14357857Y-10691429D02*
X14367381Y-10700952D01*
X14357857Y-10710476D01*
X14348333Y-10700952D01*
X14357857Y-10691429D01*
X14357857Y-10710476D01*
X14491190Y-10510476D02*
X14510238Y-10510476D01*
X14529286Y-10520000D01*
X14538809Y-10529524D01*
X14548333Y-10548571D01*
X14557857Y-10586667D01*
X14557857Y-10634286D01*
X14548333Y-10672381D01*
X14538809Y-10691429D01*
X14529286Y-10700952D01*
X14510238Y-10710476D01*
X14491190Y-10710476D01*
X14472143Y-10700952D01*
X14462619Y-10691429D01*
X14453095Y-10672381D01*
X14443571Y-10634286D01*
X14443571Y-10586667D01*
X14453095Y-10548571D01*
X14462619Y-10529524D01*
X14472143Y-10520000D01*
X14491190Y-10510476D01*
X14624524Y-10510476D02*
X14748333Y-10510476D01*
X14681667Y-10586667D01*
X14710238Y-10586667D01*
X14729286Y-10596190D01*
X14738809Y-10605714D01*
X14748333Y-10624762D01*
X14748333Y-10672381D01*
X14738809Y-10691429D01*
X14729286Y-10700952D01*
X14710238Y-10710476D01*
X14653095Y-10710476D01*
X14634048Y-10700952D01*
X14624524Y-10691429D01*
X14843571Y-10710476D02*
X14881667Y-10710476D01*
X14900714Y-10700952D01*
X14910238Y-10691429D01*
X14929286Y-10662857D01*
X14938809Y-10624762D01*
X14938809Y-10548571D01*
X14929286Y-10529524D01*
X14919762Y-10520000D01*
X14900714Y-10510476D01*
X14862619Y-10510476D01*
X14843571Y-10520000D01*
X14834048Y-10529524D01*
X14824524Y-10548571D01*
X14824524Y-10596190D01*
X14834048Y-10615238D01*
X14843571Y-10624762D01*
X14862619Y-10634286D01*
X14900714Y-10634286D01*
X14919762Y-10624762D01*
X14929286Y-10615238D01*
X14938809Y-10596190D01*
X15110238Y-10577143D02*
X15110238Y-10710476D01*
X15062619Y-10500952D02*
X15015000Y-10643810D01*
X15138809Y-10643810D01*
X15205476Y-10510476D02*
X15205476Y-10548571D01*
X15281667Y-10510476D02*
X15281667Y-10548571D01*
X15576905Y-10786667D02*
X15567381Y-10777143D01*
X15548333Y-10748571D01*
X15538809Y-10729524D01*
X15529286Y-10700952D01*
X15519762Y-10653333D01*
X15519762Y-10615238D01*
X15529286Y-10567619D01*
X15538809Y-10539048D01*
X15548333Y-10520000D01*
X15567381Y-10491429D01*
X15576905Y-10481905D01*
X15634048Y-10510476D02*
X15757857Y-10510476D01*
X15691190Y-10586667D01*
X15719762Y-10586667D01*
X15738809Y-10596190D01*
X15748333Y-10605714D01*
X15757857Y-10624762D01*
X15757857Y-10672381D01*
X15748333Y-10691429D01*
X15738809Y-10700952D01*
X15719762Y-10710476D01*
X15662619Y-10710476D01*
X15643571Y-10700952D01*
X15634048Y-10691429D01*
X15929286Y-10577143D02*
X15929286Y-10710476D01*
X15881667Y-10500952D02*
X15834048Y-10643810D01*
X15957857Y-10643810D01*
X16186428Y-10710476D02*
X16186428Y-10510476D01*
X16272143Y-10710476D02*
X16272143Y-10605714D01*
X16262619Y-10586667D01*
X16243571Y-10577143D01*
X16215000Y-10577143D01*
X16195952Y-10586667D01*
X16186428Y-10596190D01*
X16395952Y-10710476D02*
X16376905Y-10700952D01*
X16367381Y-10691429D01*
X16357857Y-10672381D01*
X16357857Y-10615238D01*
X16367381Y-10596190D01*
X16376905Y-10586667D01*
X16395952Y-10577143D01*
X16424524Y-10577143D01*
X16443571Y-10586667D01*
X16453095Y-10596190D01*
X16462619Y-10615238D01*
X16462619Y-10672381D01*
X16453095Y-10691429D01*
X16443571Y-10700952D01*
X16424524Y-10710476D01*
X16395952Y-10710476D01*
X16576905Y-10710476D02*
X16557857Y-10700952D01*
X16548333Y-10681905D01*
X16548333Y-10510476D01*
X16729286Y-10700952D02*
X16710238Y-10710476D01*
X16672143Y-10710476D01*
X16653095Y-10700952D01*
X16643571Y-10681905D01*
X16643571Y-10605714D01*
X16653095Y-10586667D01*
X16672143Y-10577143D01*
X16710238Y-10577143D01*
X16729286Y-10586667D01*
X16738809Y-10605714D01*
X16738809Y-10624762D01*
X16643571Y-10643810D01*
X16815000Y-10700952D02*
X16834048Y-10710476D01*
X16872143Y-10710476D01*
X16891190Y-10700952D01*
X16900714Y-10681905D01*
X16900714Y-10672381D01*
X16891190Y-10653333D01*
X16872143Y-10643810D01*
X16843571Y-10643810D01*
X16824524Y-10634286D01*
X16815000Y-10615238D01*
X16815000Y-10605714D01*
X16824524Y-10586667D01*
X16843571Y-10577143D01*
X16872143Y-10577143D01*
X16891190Y-10586667D01*
X16967381Y-10786667D02*
X16976905Y-10777143D01*
X16995952Y-10748571D01*
X17005476Y-10729524D01*
X17015000Y-10700952D01*
X17024524Y-10653333D01*
X17024524Y-10615238D01*
X17015000Y-10567619D01*
X17005476Y-10539048D01*
X16995952Y-10520000D01*
X16976905Y-10491429D01*
X16967381Y-10481905D01*
M02*
