M48
; DRILL file {KiCad 6.0.1} date Tue 15 Feb 2022 02:13:21 AM PST
; FORMAT={-:-/ absolute / metric / decimal}
; #@! TF.CreationDate,2022-02-15T02:13:21-08:00
; #@! TF.GenerationSoftware,Kicad,Pcbnew,6.0.1
; #@! TF.FileFunction,Plated,1,4,PTH
FMAT,2
METRIC
; #@! TA.AperFunction,Plated,PTH,ViaDrill
T1C0.300
; #@! TA.AperFunction,Plated,PTH,ComponentDrill
T2C1.000
%
G90
G05
T1
X130.04Y-57.09
X135.42Y-64.44
X135.42Y-71.23
X136.53Y-86.66
X141.445Y-64.44
X141.445Y-66.03
X141.455Y-68.44
X141.455Y-73.24
X141.455Y-78.84
X141.465Y-70.84
X141.465Y-74.84
X141.465Y-85.24
X150.305Y-78.04
X150.315Y-64.44
X150.315Y-66.04
X150.315Y-68.44
X150.315Y-70.04
X150.315Y-70.84
X150.315Y-72.44
X150.315Y-73.24
X150.315Y-74.84
X150.315Y-76.44
X150.315Y-78.84
X150.315Y-79.64
X150.315Y-80.44
X150.315Y-81.24
X150.315Y-82.04
X150.315Y-82.84
X150.315Y-83.63
X150.315Y-84.44
X150.315Y-85.24
X150.325Y-65.24
X150.325Y-67.64
T2
X122.0Y-54.55
X122.0Y-57.09
X122.0Y-59.63
X122.0Y-62.17
X122.0Y-64.71
X122.0Y-67.25
X122.0Y-69.79
X122.0Y-72.33
X122.0Y-74.87
X122.0Y-77.41
X122.0Y-79.95
X122.0Y-82.49
X122.0Y-85.03
X122.0Y-87.57
X122.0Y-90.11
X122.0Y-92.65
X122.0Y-95.19
X124.54Y-54.55
X124.54Y-57.09
X124.54Y-59.63
X124.54Y-62.17
X124.54Y-64.71
X124.54Y-67.25
X124.54Y-69.79
X124.54Y-72.33
X124.54Y-74.87
X124.54Y-77.41
X124.54Y-79.95
X124.54Y-82.49
X124.54Y-85.03
X124.54Y-87.57
X124.54Y-90.11
X124.54Y-92.65
X124.54Y-95.19
T0
M30
