G04 #@! TF.GenerationSoftware,KiCad,Pcbnew,6.0.1*
G04 #@! TF.CreationDate,2022-02-15T02:13:09-08:00*
G04 #@! TF.ProjectId,iCE40-SDRAM,69434534-302d-4534-9452-414d2e6b6963,rev?*
G04 #@! TF.SameCoordinates,Original*
G04 #@! TF.FileFunction,Copper,L1,Top*
G04 #@! TF.FilePolarity,Positive*
%FSLAX46Y46*%
G04 Gerber Fmt 4.6, Leading zero omitted, Abs format (unit mm)*
G04 Created by KiCad (PCBNEW 6.0.1) date 2022-02-15 02:13:09*
%MOMM*%
%LPD*%
G01*
G04 APERTURE LIST*
G04 Aperture macros list*
%AMRoundRect*
0 Rectangle with rounded corners*
0 $1 Rounding radius*
0 $2 $3 $4 $5 $6 $7 $8 $9 X,Y pos of 4 corners*
0 Add a 4 corners polygon primitive as box body*
4,1,4,$2,$3,$4,$5,$6,$7,$8,$9,$2,$3,0*
0 Add four circle primitives for the rounded corners*
1,1,$1+$1,$2,$3*
1,1,$1+$1,$4,$5*
1,1,$1+$1,$6,$7*
1,1,$1+$1,$8,$9*
0 Add four rect primitives between the rounded corners*
20,1,$1+$1,$2,$3,$4,$5,0*
20,1,$1+$1,$4,$5,$6,$7,0*
20,1,$1+$1,$6,$7,$8,$9,0*
20,1,$1+$1,$8,$9,$2,$3,0*%
G04 Aperture macros list end*
G04 #@! TA.AperFunction,SMDPad,CuDef*
%ADD10RoundRect,0.237500X-0.300000X-0.237500X0.300000X-0.237500X0.300000X0.237500X-0.300000X0.237500X0*%
G04 #@! TD*
G04 #@! TA.AperFunction,SMDPad,CuDef*
%ADD11RoundRect,0.237500X0.300000X0.237500X-0.300000X0.237500X-0.300000X-0.237500X0.300000X-0.237500X0*%
G04 #@! TD*
G04 #@! TA.AperFunction,SMDPad,CuDef*
%ADD12R,1.510000X0.458000*%
G04 #@! TD*
G04 #@! TA.AperFunction,ComponentPad*
%ADD13O,1.700000X1.700000*%
G04 #@! TD*
G04 #@! TA.AperFunction,ComponentPad*
%ADD14R,1.700000X1.700000*%
G04 #@! TD*
G04 #@! TA.AperFunction,ViaPad*
%ADD15C,0.600000*%
G04 #@! TD*
G04 #@! TA.AperFunction,Conductor*
%ADD16C,0.127000*%
G04 #@! TD*
G04 #@! TA.AperFunction,Conductor*
%ADD17C,0.254000*%
G04 #@! TD*
G04 APERTURE END LIST*
D10*
X128912500Y-57090000D03*
X127187500Y-57090000D03*
D11*
X138265000Y-85240000D03*
X136540000Y-85240000D03*
X136545000Y-71230000D03*
X138270000Y-71230000D03*
X138270000Y-64440000D03*
X136545000Y-64440000D03*
D12*
X140135000Y-64440000D03*
X140135000Y-65240000D03*
X140135000Y-66040000D03*
X140135000Y-66840000D03*
X140135000Y-67640000D03*
X140135000Y-68440000D03*
X140135000Y-69240000D03*
X140135000Y-70040000D03*
X140135000Y-70840000D03*
X140135000Y-71640000D03*
X140135000Y-72440000D03*
X140135000Y-73240000D03*
X140135000Y-74040000D03*
X140135000Y-74840000D03*
X140135000Y-75640000D03*
X140135000Y-76440000D03*
X140135000Y-77240000D03*
X140135000Y-78040000D03*
X140135000Y-78840000D03*
X140135000Y-79640000D03*
X140135000Y-80440000D03*
X140135000Y-81240000D03*
X140135000Y-82040000D03*
X140135000Y-82840000D03*
X140135000Y-83640000D03*
X140135000Y-84440000D03*
X140135000Y-85240000D03*
X151635000Y-85240000D03*
X151635000Y-84440000D03*
X151635000Y-83640000D03*
X151635000Y-82840000D03*
X151635000Y-82040000D03*
X151635000Y-81240000D03*
X151635000Y-80440000D03*
X151635000Y-79640000D03*
X151635000Y-78840000D03*
X151635000Y-78040000D03*
X151635000Y-77240000D03*
X151635000Y-76440000D03*
X151635000Y-75640000D03*
X151635000Y-74840000D03*
X151635000Y-74040000D03*
X151635000Y-73240000D03*
X151635000Y-72440000D03*
X151635000Y-71640000D03*
X151635000Y-70840000D03*
X151635000Y-70040000D03*
X151635000Y-69240000D03*
X151635000Y-68440000D03*
X151635000Y-67640000D03*
X151635000Y-66840000D03*
X151635000Y-66040000D03*
X151635000Y-65240000D03*
X151635000Y-64440000D03*
D13*
X122000000Y-95190000D03*
X124540000Y-95190000D03*
X122000000Y-92650000D03*
X124540000Y-92650000D03*
X122000000Y-90110000D03*
X124540000Y-90110000D03*
X122000000Y-87570000D03*
X124540000Y-87570000D03*
X122000000Y-85030000D03*
X124540000Y-85030000D03*
X122000000Y-82490000D03*
X124540000Y-82490000D03*
X122000000Y-79950000D03*
X124540000Y-79950000D03*
X122000000Y-77410000D03*
X124540000Y-77410000D03*
X122000000Y-74870000D03*
X124540000Y-74870000D03*
X122000000Y-72330000D03*
X124540000Y-72330000D03*
X122000000Y-69790000D03*
X124540000Y-69790000D03*
X122000000Y-67250000D03*
X124540000Y-67250000D03*
X122000000Y-64710000D03*
X124540000Y-64710000D03*
X122000000Y-62170000D03*
X124540000Y-62170000D03*
X122000000Y-59630000D03*
X124540000Y-59630000D03*
X122000000Y-57090000D03*
X124540000Y-57090000D03*
X122000000Y-54550000D03*
D14*
X124540000Y-54550000D03*
D15*
X136530000Y-86660000D03*
X135420000Y-71230000D03*
X135420000Y-64440000D03*
X130040000Y-57090000D03*
X150315000Y-84440000D03*
X150315000Y-83630000D03*
X150315000Y-82840000D03*
X150315000Y-82040000D03*
X150315000Y-81240000D03*
X150315000Y-80440000D03*
X150315000Y-79640000D03*
X150315000Y-78840000D03*
X150305000Y-78040000D03*
X150315000Y-76440000D03*
X150315000Y-72440000D03*
X150315000Y-70040000D03*
X150325000Y-67640000D03*
X150325000Y-65240000D03*
X141445000Y-66030000D03*
X150315000Y-64440000D03*
X150315000Y-66040000D03*
X150315000Y-68440000D03*
X150315000Y-70840000D03*
X150315000Y-73240000D03*
X150315000Y-74840000D03*
X150315000Y-85240000D03*
X141465000Y-85240000D03*
X141455000Y-78840000D03*
X141465000Y-74840000D03*
X141465000Y-70840000D03*
X141455000Y-73240000D03*
X141455000Y-68440000D03*
X141445000Y-64440000D03*
D16*
X132680000Y-71060000D02*
G75*
G02*
X132380000Y-70760000I0J300000D01*
G01*
X131780000Y-71760000D02*
X131780000Y-70360000D01*
X132380000Y-70360000D02*
X132380000Y-70760000D01*
X132080000Y-70060000D02*
G75*
G03*
X131780000Y-70360000I0J-300000D01*
G01*
X132380000Y-70360000D02*
G75*
G03*
X132080000Y-70060000I-300000J0D01*
G01*
X131920000Y-69220000D02*
G75*
G02*
X131620000Y-69520000I-300000J0D01*
G01*
X131920000Y-69220000D02*
X131920000Y-67820000D01*
X132520000Y-67820000D02*
G75*
G03*
X132220000Y-67520000I-300000J0D01*
G01*
X132220000Y-67520000D02*
G75*
G03*
X131920000Y-67820000I0J-300000D01*
G01*
X132520000Y-67820000D02*
X132520000Y-68220000D01*
X132820000Y-68520000D02*
G75*
G02*
X132520000Y-68220000I0J300000D01*
G01*
X131320000Y-67820000D02*
G75*
G03*
X131020000Y-67520000I-300000J0D01*
G01*
X131020000Y-67520000D02*
G75*
G03*
X130720000Y-67820000I0J-300000D01*
G01*
X130720000Y-69220000D02*
X130720000Y-67820000D01*
X131620000Y-69520000D02*
G75*
G02*
X131320000Y-69220000I0J300000D01*
G01*
X130420000Y-69520000D02*
G75*
G02*
X130120000Y-69220000I0J300000D01*
G01*
X130120000Y-67820000D02*
X130120000Y-69220000D01*
X133700000Y-67640000D02*
X140135000Y-67640000D01*
X130120000Y-67820000D02*
G75*
G03*
X129820000Y-67520000I-300000J0D01*
G01*
X131320000Y-67820000D02*
X131320000Y-69220000D01*
X130720000Y-69220000D02*
G75*
G02*
X130420000Y-69520000I-300000J0D01*
G01*
X129820000Y-67520000D02*
G75*
G03*
X129520000Y-67820000I0J-300000D01*
G01*
X129520000Y-69220000D02*
X129520000Y-67820000D01*
X129520000Y-69220000D02*
G75*
G02*
X129220000Y-69520000I-300000J0D01*
G01*
X129220000Y-69520000D02*
G75*
G02*
X128920000Y-69220000I0J300000D01*
G01*
X122000000Y-67250000D02*
X123270000Y-68520000D01*
X127120000Y-68220000D02*
X127120000Y-67820000D01*
X127120000Y-68220000D02*
G75*
G02*
X126820000Y-68520000I-300000J0D01*
G01*
X128920000Y-67820000D02*
X128920000Y-69220000D01*
X127720000Y-67820000D02*
X127720000Y-69220000D01*
X123270000Y-68520000D02*
X126820000Y-68520000D01*
X127420000Y-67520000D02*
G75*
G03*
X127120000Y-67820000I0J-300000D01*
G01*
X128020000Y-69520000D02*
G75*
G02*
X127720000Y-69220000I0J300000D01*
G01*
X128620000Y-67520000D02*
G75*
G03*
X128320000Y-67820000I0J-300000D01*
G01*
X127720000Y-67820000D02*
G75*
G03*
X127420000Y-67520000I-300000J0D01*
G01*
X128320000Y-69220000D02*
X128320000Y-67820000D01*
X132820000Y-68520000D02*
X133700000Y-67640000D01*
X128320000Y-69220000D02*
G75*
G02*
X128020000Y-69520000I-300000J0D01*
G01*
X128920000Y-67820000D02*
G75*
G03*
X128620000Y-67520000I-300000J0D01*
G01*
X135320000Y-77590000D02*
X135320000Y-77740000D01*
X135620000Y-78040000D02*
G75*
G02*
X135320000Y-77740000I0J300000D01*
G01*
X135920000Y-77740000D02*
G75*
G02*
X135620000Y-78040000I-300000J0D01*
G01*
X134720000Y-77740000D02*
X134720000Y-77590000D01*
X135320000Y-77590000D02*
G75*
G03*
X135020000Y-77290000I-300000J0D01*
G01*
X135920000Y-77740000D02*
X135920000Y-77590000D01*
X131720000Y-77590000D02*
X131720000Y-77740000D01*
X139220000Y-78040000D02*
X139270000Y-78040000D01*
X133820000Y-77290000D02*
G75*
G03*
X133520000Y-77590000I0J-300000D01*
G01*
X131420000Y-77290000D02*
G75*
G03*
X131120000Y-77590000I0J-300000D01*
G01*
X130220000Y-77290000D02*
G75*
G03*
X129920000Y-77590000I0J-300000D01*
G01*
X127820000Y-77540000D02*
X127920000Y-77540000D01*
X124540000Y-77410000D02*
X126340000Y-77410000D01*
X134720000Y-77740000D02*
G75*
G02*
X134420000Y-78040000I-300000J0D01*
G01*
X137420000Y-77290000D02*
G75*
G03*
X137120000Y-77590000I0J-300000D01*
G01*
X136820000Y-78040000D02*
G75*
G02*
X136520000Y-77740000I0J300000D01*
G01*
X137720000Y-77590000D02*
G75*
G03*
X137420000Y-77290000I-300000J0D01*
G01*
X132320000Y-77740000D02*
X132320000Y-77590000D01*
X129320000Y-77590000D02*
G75*
G03*
X129020000Y-77290000I-300000J0D01*
G01*
X138920000Y-77640000D02*
X138920000Y-77740000D01*
X138620000Y-77340000D02*
G75*
G03*
X138320000Y-77640000I0J-300000D01*
G01*
X135020000Y-77290000D02*
G75*
G03*
X134720000Y-77590000I0J-300000D01*
G01*
X138320000Y-77740000D02*
X138320000Y-77640000D01*
X131120000Y-77740000D02*
G75*
G02*
X130820000Y-78040000I-300000J0D01*
G01*
X126340000Y-77410000D02*
X126970000Y-78040000D01*
X136220000Y-77290000D02*
G75*
G03*
X135920000Y-77590000I0J-300000D01*
G01*
X139220000Y-78040000D02*
G75*
G02*
X138920000Y-77740000I0J300000D01*
G01*
X136520000Y-77590000D02*
X136520000Y-77740000D01*
X138320000Y-77740000D02*
G75*
G02*
X138020000Y-78040000I-300000J0D01*
G01*
X127820000Y-77540000D02*
G75*
G03*
X127570000Y-77790000I-1J-249999D01*
G01*
X130820000Y-78040000D02*
G75*
G02*
X130520000Y-77740000I0J300000D01*
G01*
X134420000Y-78040000D02*
G75*
G02*
X134120000Y-77740000I0J300000D01*
G01*
X137720000Y-77590000D02*
X137720000Y-77740000D01*
X131120000Y-77740000D02*
X131120000Y-77590000D01*
X130520000Y-77590000D02*
X130520000Y-77740000D01*
X134120000Y-77590000D02*
X134120000Y-77740000D01*
X138020000Y-78040000D02*
G75*
G02*
X137720000Y-77740000I0J300000D01*
G01*
X134120000Y-77590000D02*
G75*
G03*
X133820000Y-77290000I-300000J0D01*
G01*
X136520000Y-77590000D02*
G75*
G03*
X136220000Y-77290000I-300000J0D01*
G01*
X133520000Y-77740000D02*
X133520000Y-77590000D01*
X133520000Y-77740000D02*
G75*
G02*
X133220000Y-78040000I-300000J0D01*
G01*
X126970000Y-78040000D02*
X127320000Y-78040000D01*
X133220000Y-78040000D02*
G75*
G02*
X132920000Y-77740000I0J300000D01*
G01*
X132920000Y-77590000D02*
G75*
G03*
X132620000Y-77290000I-300000J0D01*
G01*
X132620000Y-77290000D02*
G75*
G03*
X132320000Y-77590000I0J-300000D01*
G01*
X130520000Y-77590000D02*
G75*
G03*
X130220000Y-77290000I-300000J0D01*
G01*
X137120000Y-77740000D02*
G75*
G02*
X136820000Y-78040000I-300000J0D01*
G01*
X129920000Y-77740000D02*
G75*
G02*
X129620000Y-78040000I-300000J0D01*
G01*
X132920000Y-77590000D02*
X132920000Y-77740000D01*
X139270000Y-78040000D02*
X140135000Y-78040000D01*
X132320000Y-77740000D02*
G75*
G02*
X132020000Y-78040000I-300000J0D01*
G01*
X127570000Y-77790000D02*
G75*
G02*
X127320000Y-78040000I-249999J-1D01*
G01*
X128720000Y-77740000D02*
X128720000Y-77590000D01*
X132020000Y-78040000D02*
G75*
G02*
X131720000Y-77740000I0J300000D01*
G01*
X131720000Y-77590000D02*
G75*
G03*
X131420000Y-77290000I-300000J0D01*
G01*
X129920000Y-77740000D02*
X129920000Y-77590000D01*
X129320000Y-77590000D02*
X129320000Y-77740000D01*
X129620000Y-78040000D02*
G75*
G02*
X129320000Y-77740000I0J300000D01*
G01*
X129020000Y-77290000D02*
G75*
G03*
X128720000Y-77590000I0J-300000D01*
G01*
X128170000Y-77790000D02*
G75*
G03*
X127920000Y-77540000I-249999J1D01*
G01*
X138920000Y-77640000D02*
G75*
G03*
X138620000Y-77340000I-300000J0D01*
G01*
X137120000Y-77740000D02*
X137120000Y-77590000D01*
X128720000Y-77740000D02*
G75*
G02*
X128420000Y-78040000I-300000J0D01*
G01*
X128420000Y-78040000D02*
G75*
G02*
X128170000Y-77790000I-1J249999D01*
G01*
D17*
X136540000Y-86650000D02*
X136530000Y-86660000D01*
X136540000Y-85240000D02*
X136540000Y-86650000D01*
X138265000Y-85240000D02*
X140135000Y-85240000D01*
X136545000Y-71230000D02*
X135420000Y-71230000D01*
X138660000Y-70840000D02*
X138270000Y-71230000D01*
X140135000Y-70840000D02*
X138660000Y-70840000D01*
X138270000Y-64440000D02*
X140135000Y-64440000D01*
X136545000Y-64440000D02*
X135420000Y-64440000D01*
X128912500Y-57090000D02*
X130040000Y-57090000D01*
X124540000Y-57090000D02*
X127187500Y-57090000D01*
X122000000Y-59630000D02*
X123270000Y-60900000D01*
X123270000Y-60900000D02*
X140410000Y-60900000D01*
X140410000Y-60900000D02*
X145915000Y-66405000D01*
X145915000Y-66405000D02*
X145915000Y-74620000D01*
X145915000Y-74620000D02*
X148535000Y-77240000D01*
X148535000Y-77240000D02*
X150305000Y-77240000D01*
D16*
X134720000Y-76940000D02*
X134720000Y-76790000D01*
X134120000Y-76790000D02*
X134120000Y-76940000D01*
X129320000Y-76790000D02*
X129320000Y-76940000D01*
X133520000Y-76940000D02*
X133520000Y-76790000D01*
X132920000Y-76790000D02*
X132920000Y-76940000D01*
X132320000Y-76940000D02*
X132320000Y-76790000D01*
X131120000Y-76940000D02*
X131120000Y-76790000D01*
X126995733Y-76391469D02*
G75*
G02*
X126571471Y-76391469I-212131J212131D01*
G01*
X130520000Y-76790000D02*
X130520000Y-76940000D01*
X127490709Y-76320761D02*
G75*
G03*
X127066446Y-76320760I-212132J-212130D01*
G01*
X137720000Y-76790000D02*
G75*
G03*
X137420000Y-76490000I-300000J0D01*
G01*
X127490710Y-76745024D02*
X127420000Y-76815735D01*
X128720000Y-76940000D02*
X128720000Y-76790000D01*
X131720000Y-76790000D02*
G75*
G03*
X131420000Y-76490000I-300000J0D01*
G01*
X127420000Y-76815735D02*
X127419999Y-76815735D01*
X127066445Y-76320760D02*
X127066445Y-76320759D01*
X126995734Y-76391470D02*
X127066445Y-76320760D01*
X122000000Y-74870000D02*
X123290000Y-76160000D01*
X138970000Y-76790000D02*
G75*
G03*
X138670000Y-76490000I-300000J0D01*
G01*
X138670000Y-76490000D02*
G75*
G03*
X138370000Y-76790000I0J-300000D01*
G01*
X138020000Y-77240000D02*
G75*
G02*
X137720000Y-76940000I0J300000D01*
G01*
X133520000Y-76940000D02*
G75*
G02*
X133220000Y-77240000I-300000J0D01*
G01*
X137120000Y-76940000D02*
G75*
G02*
X136820000Y-77240000I-300000J0D01*
G01*
X136820000Y-77240000D02*
G75*
G02*
X136520000Y-76940000I0J300000D01*
G01*
X133220000Y-77240000D02*
G75*
G02*
X132920000Y-76940000I0J300000D01*
G01*
X130520000Y-76790000D02*
G75*
G03*
X130220000Y-76490000I-300000J0D01*
G01*
X127420000Y-77240000D02*
X128420000Y-77240000D01*
X139270000Y-77240000D02*
G75*
G02*
X138970000Y-76940000I0J300000D01*
G01*
X136220000Y-76490000D02*
G75*
G03*
X135920000Y-76790000I0J-300000D01*
G01*
X132020000Y-77240000D02*
G75*
G02*
X131720000Y-76940000I0J300000D01*
G01*
X134420000Y-77240000D02*
G75*
G02*
X134120000Y-76940000I0J300000D01*
G01*
X138370000Y-76940000D02*
X138370000Y-76790000D01*
X134720000Y-76940000D02*
G75*
G02*
X134420000Y-77240000I-300000J0D01*
G01*
X131720000Y-76790000D02*
X131720000Y-76940000D01*
X138970000Y-76790000D02*
X138970000Y-76940000D01*
X129920000Y-76940000D02*
G75*
G02*
X129620000Y-77240000I-300000J0D01*
G01*
X126340000Y-76160000D02*
X126571470Y-76391470D01*
X135620000Y-77240000D02*
G75*
G02*
X135320000Y-76940000I0J300000D01*
G01*
X139320000Y-77240000D02*
X140135000Y-77240000D01*
X130820000Y-77240000D02*
G75*
G02*
X130520000Y-76940000I0J300000D01*
G01*
X127420001Y-77239999D02*
G75*
G02*
X127420000Y-76815736I212130J212132D01*
G01*
X129320000Y-76790000D02*
G75*
G03*
X129020000Y-76490000I-300000J0D01*
G01*
X129020000Y-76490000D02*
G75*
G03*
X128720000Y-76790000I0J-300000D01*
G01*
X131120000Y-76940000D02*
G75*
G02*
X130820000Y-77240000I-300000J0D01*
G01*
X132920000Y-76790000D02*
G75*
G03*
X132620000Y-76490000I-300000J0D01*
G01*
X129620000Y-77240000D02*
G75*
G02*
X129320000Y-76940000I0J300000D01*
G01*
X130220000Y-76490000D02*
G75*
G03*
X129920000Y-76790000I0J-300000D01*
G01*
X135920000Y-76940000D02*
X135920000Y-76790000D01*
X132620000Y-76490000D02*
G75*
G03*
X132320000Y-76790000I0J-300000D01*
G01*
X123290000Y-76160000D02*
X126340000Y-76160000D01*
X137720000Y-76790000D02*
X137720000Y-76940000D01*
X128720000Y-76940000D02*
G75*
G02*
X128420000Y-77240000I-300000J0D01*
G01*
X133820000Y-76490000D02*
G75*
G03*
X133520000Y-76790000I0J-300000D01*
G01*
X129920000Y-76940000D02*
X129920000Y-76790000D01*
X132320000Y-76940000D02*
G75*
G02*
X132020000Y-77240000I-300000J0D01*
G01*
X138370000Y-76940000D02*
G75*
G02*
X138070000Y-77240000I-300000J0D01*
G01*
X136520000Y-76790000D02*
G75*
G03*
X136220000Y-76490000I-300000J0D01*
G01*
X131420000Y-76490000D02*
G75*
G03*
X131120000Y-76790000I0J-300000D01*
G01*
X134120000Y-76790000D02*
G75*
G03*
X133820000Y-76490000I-300000J0D01*
G01*
X135020000Y-76490000D02*
G75*
G03*
X134720000Y-76790000I0J-300000D01*
G01*
X135320000Y-76790000D02*
G75*
G03*
X135020000Y-76490000I-300000J0D01*
G01*
X137420000Y-76490000D02*
G75*
G03*
X137120000Y-76790000I0J-300000D01*
G01*
X127490709Y-76745023D02*
G75*
G03*
X127490709Y-76320761I-212131J212131D01*
G01*
X135920000Y-76940000D02*
G75*
G02*
X135620000Y-77240000I-300000J0D01*
G01*
X137120000Y-76940000D02*
X137120000Y-76790000D01*
X135320000Y-76790000D02*
X135320000Y-76940000D01*
X136520000Y-76790000D02*
X136520000Y-76940000D01*
X138020000Y-77240000D02*
X138070000Y-77240000D01*
X139270000Y-77240000D02*
X139320000Y-77240000D01*
X133530000Y-76140000D02*
X133530000Y-75740000D01*
X131730000Y-75740000D02*
X131730000Y-76140000D01*
X127910000Y-76015735D02*
X127909999Y-76015735D01*
X134730000Y-76140000D02*
X134730000Y-75740000D01*
X126340000Y-74870000D02*
X127061470Y-75591470D01*
X138630000Y-75440000D02*
G75*
G03*
X138330000Y-75740000I0J-300000D01*
G01*
X138030000Y-76440000D02*
G75*
G02*
X137730000Y-76140000I0J300000D01*
G01*
X128680000Y-76140000D02*
X128680000Y-75740000D01*
X138930000Y-75740000D02*
X138930000Y-76140000D01*
X137730000Y-75740000D02*
G75*
G03*
X137430000Y-75440000I-300000J0D01*
G01*
X137430000Y-75440000D02*
G75*
G03*
X137130000Y-75740000I0J-300000D01*
G01*
X129280000Y-75740000D02*
G75*
G03*
X128980000Y-75440000I-300000J0D01*
G01*
X136230000Y-75440000D02*
G75*
G03*
X135930000Y-75740000I0J-300000D01*
G01*
X129280000Y-75740000D02*
X129280000Y-76140000D01*
X129880000Y-76140000D02*
G75*
G02*
X129580000Y-76440000I-300000J0D01*
G01*
X131130000Y-76140000D02*
G75*
G02*
X130830000Y-76440000I-300000J0D01*
G01*
X128680000Y-76140000D02*
G75*
G02*
X128380000Y-76440000I-300000J0D01*
G01*
X127485733Y-75591469D02*
G75*
G02*
X127061471Y-75591469I-212131J212131D01*
G01*
X133230000Y-76440000D02*
G75*
G02*
X132930000Y-76140000I0J300000D01*
G01*
X137130000Y-76140000D02*
G75*
G02*
X136830000Y-76440000I-300000J0D01*
G01*
X133830000Y-75440000D02*
G75*
G03*
X133530000Y-75740000I0J-300000D01*
G01*
X135630000Y-76440000D02*
G75*
G02*
X135330000Y-76140000I0J300000D01*
G01*
X130780000Y-76440000D02*
X130830000Y-76440000D01*
X134130000Y-75740000D02*
G75*
G03*
X133830000Y-75440000I-300000J0D01*
G01*
X130780000Y-76440000D02*
G75*
G02*
X130480000Y-76140000I0J300000D01*
G01*
X129880000Y-76140000D02*
X129880000Y-75740000D01*
X131130000Y-76140000D02*
X131130000Y-75740000D01*
X132630000Y-75440000D02*
G75*
G03*
X132330000Y-75740000I0J-300000D01*
G01*
X135330000Y-75740000D02*
X135330000Y-76140000D01*
X132330000Y-76140000D02*
G75*
G02*
X132030000Y-76440000I-300000J0D01*
G01*
X127485734Y-75591470D02*
X127768577Y-75308628D01*
X138930000Y-75740000D02*
G75*
G03*
X138630000Y-75440000I-300000J0D01*
G01*
X129580000Y-76440000D02*
G75*
G02*
X129280000Y-76140000I0J300000D01*
G01*
X130480000Y-75740000D02*
X130480000Y-76140000D01*
X138330000Y-76140000D02*
X138330000Y-75740000D01*
X130480000Y-75740000D02*
G75*
G03*
X130180000Y-75440000I-300000J0D01*
G01*
X134130000Y-75740000D02*
X134130000Y-76140000D01*
X128980000Y-75440000D02*
G75*
G03*
X128680000Y-75740000I0J-300000D01*
G01*
X133530000Y-76140000D02*
G75*
G02*
X133230000Y-76440000I-300000J0D01*
G01*
X127910001Y-76439999D02*
G75*
G02*
X127910000Y-76015736I212130J212132D01*
G01*
X136830000Y-76440000D02*
G75*
G02*
X136530000Y-76140000I0J300000D01*
G01*
X128192841Y-75732891D02*
G75*
G03*
X128192841Y-75308629I-212131J212131D01*
G01*
X136530000Y-75740000D02*
G75*
G03*
X136230000Y-75440000I-300000J0D01*
G01*
X134730000Y-76140000D02*
G75*
G02*
X134430000Y-76440000I-300000J0D01*
G01*
X128192841Y-75308629D02*
G75*
G03*
X127768578Y-75308628I-212132J-212130D01*
G01*
X128192842Y-75732892D02*
X127910000Y-76015735D01*
X132030000Y-76440000D02*
G75*
G02*
X131730000Y-76140000I0J300000D01*
G01*
X124540000Y-74870000D02*
X126340000Y-74870000D01*
X131430000Y-75440000D02*
G75*
G03*
X131130000Y-75740000I0J-300000D01*
G01*
X131730000Y-75740000D02*
G75*
G03*
X131430000Y-75440000I-300000J0D01*
G01*
X130180000Y-75440000D02*
G75*
G03*
X129880000Y-75740000I0J-300000D01*
G01*
X132330000Y-76140000D02*
X132330000Y-75740000D01*
X127910000Y-76440000D02*
X128380000Y-76440000D01*
X132930000Y-75740000D02*
G75*
G03*
X132630000Y-75440000I-300000J0D01*
G01*
X127768577Y-75308628D02*
X127768577Y-75308627D01*
X135930000Y-76140000D02*
X135930000Y-75740000D01*
X139230000Y-76440000D02*
G75*
G02*
X138930000Y-76140000I0J300000D01*
G01*
X135030000Y-75440000D02*
G75*
G03*
X134730000Y-75740000I0J-300000D01*
G01*
X134430000Y-76440000D02*
G75*
G02*
X134130000Y-76140000I0J300000D01*
G01*
X132930000Y-75740000D02*
X132930000Y-76140000D01*
X138330000Y-76140000D02*
G75*
G02*
X138030000Y-76440000I-300000J0D01*
G01*
X135930000Y-76140000D02*
G75*
G02*
X135630000Y-76440000I-300000J0D01*
G01*
X135330000Y-75740000D02*
G75*
G03*
X135030000Y-75440000I-300000J0D01*
G01*
X136530000Y-75740000D02*
X136530000Y-76140000D01*
X137130000Y-76140000D02*
X137130000Y-75740000D01*
X137730000Y-75740000D02*
X137730000Y-76140000D01*
X139230000Y-76440000D02*
X139280000Y-76440000D01*
X139280000Y-76440000D02*
X140135000Y-76440000D01*
X135310000Y-83990000D02*
X135310000Y-84140000D01*
X134110000Y-83990000D02*
X134110000Y-84140000D01*
X130510000Y-83990000D02*
X130510000Y-84140000D01*
X132910000Y-83990000D02*
X132910000Y-84140000D01*
X131110000Y-84140000D02*
X131110000Y-83990000D01*
X134710000Y-84140000D02*
X134710000Y-83990000D01*
X133210000Y-84440000D02*
G75*
G02*
X132910000Y-84140000I0J300000D01*
G01*
X128710000Y-84140000D02*
G75*
G02*
X128410000Y-84440000I-300000J0D01*
G01*
X129910000Y-84140000D02*
X129910000Y-83990000D01*
X136210000Y-83690000D02*
G75*
G03*
X135910000Y-83990000I0J-300000D01*
G01*
X129310000Y-83990000D02*
X129310000Y-84140000D01*
X128220000Y-84440000D02*
X128410000Y-84440000D01*
X127795735Y-84440000D02*
X127795734Y-84440000D01*
X127371470Y-84864263D02*
X127088628Y-84581421D01*
X138610000Y-83690000D02*
G75*
G03*
X138310000Y-83990000I0J-300000D01*
G01*
X138010000Y-84440000D02*
G75*
G02*
X137710000Y-84140000I0J300000D01*
G01*
X137110000Y-84140000D02*
X137110000Y-83990000D01*
X139210000Y-84440000D02*
G75*
G02*
X138910000Y-84140000I0J300000D01*
G01*
X135310000Y-83990000D02*
G75*
G03*
X135010000Y-83690000I-300000J0D01*
G01*
X137710000Y-83990000D02*
G75*
G03*
X137410000Y-83690000I-300000J0D01*
G01*
X136510000Y-83990000D02*
G75*
G03*
X136210000Y-83690000I-300000J0D01*
G01*
X137110000Y-84140000D02*
G75*
G02*
X136810000Y-84440000I-300000J0D01*
G01*
X132310000Y-84140000D02*
X132310000Y-83990000D01*
X131710000Y-83990000D02*
X131710000Y-84140000D01*
X126340000Y-86320000D02*
X127371470Y-85288527D01*
X136810000Y-84440000D02*
G75*
G02*
X136510000Y-84140000I0J300000D01*
G01*
X134410000Y-84440000D02*
G75*
G02*
X134110000Y-84140000I0J300000D01*
G01*
X133510000Y-84140000D02*
X133510000Y-83990000D01*
X131110000Y-84140000D02*
G75*
G02*
X130810000Y-84440000I-300000J0D01*
G01*
X123290000Y-86320000D02*
X126340000Y-86320000D01*
X131710000Y-83990000D02*
G75*
G03*
X131410000Y-83690000I-300000J0D01*
G01*
X129010000Y-83690000D02*
G75*
G03*
X128710000Y-83990000I0J-300000D01*
G01*
X130210000Y-83690000D02*
G75*
G03*
X129910000Y-83990000I0J-300000D01*
G01*
X128710000Y-84140000D02*
X128710000Y-83990000D01*
X129310000Y-83990000D02*
G75*
G03*
X129010000Y-83690000I-300000J0D01*
G01*
X130510000Y-83990000D02*
G75*
G03*
X130210000Y-83690000I-300000J0D01*
G01*
X127371469Y-84864264D02*
G75*
G02*
X127371469Y-85288526I-212131J-212131D01*
G01*
X130810000Y-84440000D02*
G75*
G02*
X130510000Y-84140000I0J300000D01*
G01*
X135010000Y-83690000D02*
G75*
G03*
X134710000Y-83990000I0J-300000D01*
G01*
X122000000Y-85030000D02*
X123290000Y-86320000D01*
X133510000Y-84140000D02*
G75*
G02*
X133210000Y-84440000I-300000J0D01*
G01*
X128220000Y-84440000D02*
G75*
G02*
X127795734Y-84440000I-212133J212134D01*
G01*
X137410000Y-83690000D02*
G75*
G03*
X137110000Y-83990000I0J-300000D01*
G01*
X127512891Y-84157158D02*
G75*
G03*
X127088629Y-84157158I-212131J-212131D01*
G01*
X134110000Y-83990000D02*
G75*
G03*
X133810000Y-83690000I-300000J0D01*
G01*
X127512892Y-84157157D02*
X127795735Y-84440000D01*
X131410000Y-83690000D02*
G75*
G03*
X131110000Y-83990000I0J-300000D01*
G01*
X129610000Y-84440000D02*
G75*
G02*
X129310000Y-84140000I0J300000D01*
G01*
X129910000Y-84140000D02*
G75*
G02*
X129610000Y-84440000I-300000J0D01*
G01*
X132310000Y-84140000D02*
G75*
G02*
X132010000Y-84440000I-300000J0D01*
G01*
X132610000Y-83690000D02*
G75*
G03*
X132310000Y-83990000I0J-300000D01*
G01*
X132910000Y-83990000D02*
G75*
G03*
X132610000Y-83690000I-300000J0D01*
G01*
X135910000Y-84140000D02*
G75*
G02*
X135610000Y-84440000I-300000J0D01*
G01*
X133810000Y-83690000D02*
G75*
G03*
X133510000Y-83990000I0J-300000D01*
G01*
X138310000Y-84140000D02*
G75*
G02*
X138010000Y-84440000I-300000J0D01*
G01*
X135910000Y-84140000D02*
X135910000Y-83990000D01*
X132010000Y-84440000D02*
G75*
G02*
X131710000Y-84140000I0J300000D01*
G01*
X138910000Y-83990000D02*
G75*
G03*
X138610000Y-83690000I-300000J0D01*
G01*
X134710000Y-84140000D02*
G75*
G02*
X134410000Y-84440000I-300000J0D01*
G01*
X127088629Y-84157158D02*
G75*
G03*
X127088629Y-84581420I212131J-212131D01*
G01*
X135610000Y-84440000D02*
G75*
G02*
X135310000Y-84140000I0J300000D01*
G01*
X136510000Y-83990000D02*
X136510000Y-84140000D01*
X137710000Y-83990000D02*
X137710000Y-84140000D01*
X138310000Y-84140000D02*
X138310000Y-83990000D01*
X138910000Y-83990000D02*
X138910000Y-84140000D01*
X139210000Y-84440000D02*
X139260000Y-84440000D01*
X139260000Y-84440000D02*
X140135000Y-84440000D01*
X135910000Y-83340000D02*
X135910000Y-83190000D01*
X135310000Y-83190000D02*
X135310000Y-83340000D01*
X129910000Y-83340000D02*
X129910000Y-83190000D01*
X128710000Y-83340000D02*
X128710000Y-83190000D01*
X129310000Y-83190000D02*
X129310000Y-83340000D01*
X132310000Y-83340000D02*
G75*
G02*
X132010000Y-83640000I-300000J0D01*
G01*
X128110000Y-83190000D02*
X128110000Y-83340000D01*
X127510000Y-83340000D02*
X127510000Y-83190000D01*
X127200000Y-83640000D02*
X127210000Y-83640000D01*
X134410000Y-83640000D02*
G75*
G02*
X134110000Y-83340000I0J300000D01*
G01*
X125810000Y-85030000D02*
X127200000Y-83640000D01*
X134710000Y-83340000D02*
G75*
G02*
X134410000Y-83640000I-300000J0D01*
G01*
X139210000Y-83640000D02*
G75*
G02*
X138910000Y-83340000I0J300000D01*
G01*
X136510000Y-83190000D02*
X136510000Y-83340000D01*
X138910000Y-83190000D02*
G75*
G03*
X138610000Y-82890000I-300000J0D01*
G01*
X138310000Y-83340000D02*
G75*
G02*
X138010000Y-83640000I-300000J0D01*
G01*
X138010000Y-83640000D02*
G75*
G02*
X137710000Y-83340000I0J300000D01*
G01*
X135910000Y-83340000D02*
G75*
G02*
X135610000Y-83640000I-300000J0D01*
G01*
X137710000Y-83190000D02*
G75*
G03*
X137410000Y-82890000I-300000J0D01*
G01*
X130510000Y-83190000D02*
X130510000Y-83340000D01*
X138610000Y-82890000D02*
G75*
G03*
X138310000Y-83190000I0J-300000D01*
G01*
X137410000Y-82890000D02*
G75*
G03*
X137110000Y-83190000I0J-300000D01*
G01*
X134110000Y-83190000D02*
X134110000Y-83340000D01*
X131110000Y-83340000D02*
X131110000Y-83190000D01*
X137110000Y-83340000D02*
G75*
G02*
X136810000Y-83640000I-300000J0D01*
G01*
X136210000Y-82890000D02*
G75*
G03*
X135910000Y-83190000I0J-300000D01*
G01*
X136510000Y-83190000D02*
G75*
G03*
X136210000Y-82890000I-300000J0D01*
G01*
X132310000Y-83340000D02*
X132310000Y-83190000D01*
X134710000Y-83340000D02*
X134710000Y-83190000D01*
X129010000Y-82890000D02*
G75*
G03*
X128710000Y-83190000I0J-300000D01*
G01*
X131410000Y-82890000D02*
G75*
G03*
X131110000Y-83190000I0J-300000D01*
G01*
X129910000Y-83340000D02*
G75*
G02*
X129610000Y-83640000I-300000J0D01*
G01*
X132010000Y-83640000D02*
G75*
G02*
X131710000Y-83340000I0J300000D01*
G01*
X133510000Y-83340000D02*
X133510000Y-83190000D01*
X132910000Y-83190000D02*
X132910000Y-83340000D01*
X124540000Y-85030000D02*
X125810000Y-85030000D01*
X130810000Y-83640000D02*
G75*
G02*
X130510000Y-83340000I0J300000D01*
G01*
X136810000Y-83640000D02*
G75*
G02*
X136510000Y-83340000I0J300000D01*
G01*
X130510000Y-83190000D02*
G75*
G03*
X130210000Y-82890000I-300000J0D01*
G01*
X127510000Y-83340000D02*
G75*
G02*
X127210000Y-83640000I-300000J0D01*
G01*
X131110000Y-83340000D02*
G75*
G02*
X130810000Y-83640000I-300000J0D01*
G01*
X128710000Y-83340000D02*
G75*
G02*
X128410000Y-83640000I-300000J0D01*
G01*
X128110000Y-83190000D02*
G75*
G03*
X127810000Y-82890000I-300000J0D01*
G01*
X135310000Y-83190000D02*
G75*
G03*
X135010000Y-82890000I-300000J0D01*
G01*
X133210000Y-83640000D02*
G75*
G02*
X132910000Y-83340000I0J300000D01*
G01*
X129310000Y-83190000D02*
G75*
G03*
X129010000Y-82890000I-300000J0D01*
G01*
X131710000Y-83190000D02*
G75*
G03*
X131410000Y-82890000I-300000J0D01*
G01*
X130210000Y-82890000D02*
G75*
G03*
X129910000Y-83190000I0J-300000D01*
G01*
X128410000Y-83640000D02*
G75*
G02*
X128110000Y-83340000I0J300000D01*
G01*
X132910000Y-83190000D02*
G75*
G03*
X132610000Y-82890000I-300000J0D01*
G01*
X131710000Y-83190000D02*
X131710000Y-83340000D01*
X127810000Y-82890000D02*
G75*
G03*
X127510000Y-83190000I0J-300000D01*
G01*
X133510000Y-83340000D02*
G75*
G02*
X133210000Y-83640000I-300000J0D01*
G01*
X137710000Y-83190000D02*
X137710000Y-83340000D01*
X133810000Y-82890000D02*
G75*
G03*
X133510000Y-83190000I0J-300000D01*
G01*
X134110000Y-83190000D02*
G75*
G03*
X133810000Y-82890000I-300000J0D01*
G01*
X135010000Y-82890000D02*
G75*
G03*
X134710000Y-83190000I0J-300000D01*
G01*
X132610000Y-82890000D02*
G75*
G03*
X132310000Y-83190000I0J-300000D01*
G01*
X129610000Y-83640000D02*
G75*
G02*
X129310000Y-83340000I0J300000D01*
G01*
X135610000Y-83640000D02*
G75*
G02*
X135310000Y-83340000I0J300000D01*
G01*
X137110000Y-83340000D02*
X137110000Y-83190000D01*
X138310000Y-83340000D02*
X138310000Y-83190000D01*
X138910000Y-83190000D02*
X138910000Y-83340000D01*
X139210000Y-83640000D02*
X139260000Y-83640000D01*
X139260000Y-83640000D02*
X140135000Y-83640000D01*
X134120000Y-82390000D02*
X134120000Y-82540000D01*
X132920000Y-82440000D02*
X132920000Y-82540000D01*
X122000000Y-82490000D02*
X123250000Y-83740000D01*
X132320000Y-82540000D02*
X132320000Y-82440000D01*
X131120000Y-82540000D02*
X131120000Y-82440000D01*
X138320000Y-82540000D02*
X138320000Y-82390000D01*
X135920000Y-82540000D02*
X135920000Y-82390000D01*
X137420000Y-82090000D02*
G75*
G03*
X137120000Y-82390000I0J-300000D01*
G01*
X130520000Y-82440000D02*
X130520000Y-82540000D01*
X128420000Y-82840000D02*
G75*
G02*
X128120000Y-82540000I0J300000D01*
G01*
X128120000Y-82440000D02*
X128120000Y-82540000D01*
X127520000Y-82540000D02*
X127520000Y-82440000D01*
X126850000Y-82840000D02*
X127220000Y-82840000D01*
X132920000Y-82440000D02*
G75*
G03*
X132620000Y-82140000I-300000J0D01*
G01*
X128720000Y-82540000D02*
X128720000Y-82440000D01*
X125950000Y-83740000D02*
X126850000Y-82840000D01*
X128120000Y-82440000D02*
G75*
G03*
X127820000Y-82140000I-300000J0D01*
G01*
X129920000Y-82540000D02*
X129920000Y-82440000D01*
X123250000Y-83740000D02*
X125950000Y-83740000D01*
X139220000Y-82840000D02*
G75*
G02*
X138920000Y-82540000I0J300000D01*
G01*
X138320000Y-82540000D02*
G75*
G02*
X138020000Y-82840000I-300000J0D01*
G01*
X138020000Y-82840000D02*
G75*
G02*
X137720000Y-82540000I0J300000D01*
G01*
X137120000Y-82540000D02*
G75*
G02*
X136820000Y-82840000I-300000J0D01*
G01*
X137720000Y-82390000D02*
X137720000Y-82540000D01*
X136520000Y-82390000D02*
G75*
G03*
X136220000Y-82090000I-300000J0D01*
G01*
X136220000Y-82090000D02*
G75*
G03*
X135920000Y-82390000I0J-300000D01*
G01*
X138920000Y-82390000D02*
G75*
G03*
X138620000Y-82090000I-300000J0D01*
G01*
X135920000Y-82540000D02*
G75*
G02*
X135620000Y-82840000I-300000J0D01*
G01*
X131720000Y-82440000D02*
G75*
G03*
X131420000Y-82140000I-300000J0D01*
G01*
X137120000Y-82540000D02*
X137120000Y-82390000D01*
X130520000Y-82440000D02*
G75*
G03*
X130220000Y-82140000I-300000J0D01*
G01*
X129020000Y-82140000D02*
G75*
G03*
X128720000Y-82440000I0J-300000D01*
G01*
X128720000Y-82540000D02*
G75*
G02*
X128420000Y-82840000I-300000J0D01*
G01*
X132020000Y-82840000D02*
G75*
G02*
X131720000Y-82540000I0J300000D01*
G01*
X133520000Y-82540000D02*
X133520000Y-82390000D01*
X129320000Y-82440000D02*
X129320000Y-82540000D01*
X133820000Y-82090000D02*
G75*
G03*
X133520000Y-82390000I0J-300000D01*
G01*
X138620000Y-82090000D02*
G75*
G03*
X138320000Y-82390000I0J-300000D01*
G01*
X135020000Y-82090000D02*
G75*
G03*
X134720000Y-82390000I0J-300000D01*
G01*
X135620000Y-82840000D02*
G75*
G02*
X135320000Y-82540000I0J300000D01*
G01*
X137720000Y-82390000D02*
G75*
G03*
X137420000Y-82090000I-300000J0D01*
G01*
X130220000Y-82140000D02*
G75*
G03*
X129920000Y-82440000I0J-300000D01*
G01*
X135320000Y-82390000D02*
X135320000Y-82540000D01*
X136820000Y-82840000D02*
G75*
G02*
X136520000Y-82540000I0J300000D01*
G01*
X129920000Y-82540000D02*
G75*
G02*
X129620000Y-82840000I-300000J0D01*
G01*
X131720000Y-82440000D02*
X131720000Y-82540000D01*
X127820000Y-82140000D02*
G75*
G03*
X127520000Y-82440000I0J-300000D01*
G01*
X131120000Y-82540000D02*
G75*
G02*
X130820000Y-82840000I-300000J0D01*
G01*
X131420000Y-82140000D02*
G75*
G03*
X131120000Y-82440000I0J-300000D01*
G01*
X132320000Y-82540000D02*
G75*
G02*
X132020000Y-82840000I-300000J0D01*
G01*
X135320000Y-82390000D02*
G75*
G03*
X135020000Y-82090000I-300000J0D01*
G01*
X129620000Y-82840000D02*
G75*
G02*
X129320000Y-82540000I0J300000D01*
G01*
X127520000Y-82540000D02*
G75*
G02*
X127220000Y-82840000I-300000J0D01*
G01*
X132620000Y-82140000D02*
G75*
G03*
X132320000Y-82440000I0J-300000D01*
G01*
X133220000Y-82840000D02*
G75*
G02*
X132920000Y-82540000I0J300000D01*
G01*
X129320000Y-82440000D02*
G75*
G03*
X129020000Y-82140000I-300000J0D01*
G01*
X133520000Y-82540000D02*
G75*
G02*
X133220000Y-82840000I-300000J0D01*
G01*
X134420000Y-82840000D02*
G75*
G02*
X134120000Y-82540000I0J300000D01*
G01*
X130820000Y-82840000D02*
G75*
G02*
X130520000Y-82540000I0J300000D01*
G01*
X134120000Y-82390000D02*
G75*
G03*
X133820000Y-82090000I-300000J0D01*
G01*
X138920000Y-82390000D02*
X138920000Y-82540000D01*
X134720000Y-82540000D02*
X134720000Y-82390000D01*
X134720000Y-82540000D02*
G75*
G02*
X134420000Y-82840000I-300000J0D01*
G01*
X136520000Y-82390000D02*
X136520000Y-82540000D01*
X139220000Y-82840000D02*
X139270000Y-82840000D01*
X139270000Y-82840000D02*
X140135000Y-82840000D01*
X135920000Y-81740000D02*
X135920000Y-81590000D01*
X133520000Y-81740000D02*
X133520000Y-81590000D01*
X136520000Y-81590000D02*
X136520000Y-81740000D01*
X133170000Y-82040000D02*
X133220000Y-82040000D01*
X128070000Y-81640000D02*
X128070000Y-81740000D01*
X131670000Y-81640000D02*
X131670000Y-81740000D01*
X126340000Y-82490000D02*
X126790000Y-82040000D01*
X133820000Y-81290000D02*
G75*
G03*
X133520000Y-81590000I0J-300000D01*
G01*
X137120000Y-81740000D02*
X137120000Y-81590000D01*
X137720000Y-81590000D02*
X137720000Y-81740000D01*
X139220000Y-82040000D02*
G75*
G02*
X138920000Y-81740000I0J300000D01*
G01*
X126790000Y-82040000D02*
X127170000Y-82040000D01*
X124540000Y-82490000D02*
X126340000Y-82490000D01*
X138920000Y-81590000D02*
G75*
G03*
X138620000Y-81290000I-300000J0D01*
G01*
X135320000Y-81590000D02*
X135320000Y-81740000D01*
X137420000Y-81290000D02*
G75*
G03*
X137120000Y-81590000I0J-300000D01*
G01*
X136820000Y-82040000D02*
G75*
G02*
X136520000Y-81740000I0J300000D01*
G01*
X136220000Y-81290000D02*
G75*
G03*
X135920000Y-81590000I0J-300000D01*
G01*
X130470000Y-81640000D02*
G75*
G03*
X130170000Y-81340000I-300000J0D01*
G01*
X128670000Y-81740000D02*
G75*
G02*
X128370000Y-82040000I-300000J0D01*
G01*
X139270000Y-82040000D02*
X140135000Y-82040000D01*
X132870000Y-81640000D02*
X132870000Y-81740000D01*
X127470000Y-81740000D02*
G75*
G02*
X127170000Y-82040000I-300000J0D01*
G01*
X132270000Y-81740000D02*
G75*
G02*
X131970000Y-82040000I-300000J0D01*
G01*
X134120000Y-81590000D02*
X134120000Y-81740000D01*
X138620000Y-81290000D02*
G75*
G03*
X138320000Y-81590000I0J-300000D01*
G01*
X132570000Y-81340000D02*
G75*
G03*
X132270000Y-81640000I0J-300000D01*
G01*
X129870000Y-81740000D02*
G75*
G02*
X129570000Y-82040000I-300000J0D01*
G01*
X130170000Y-81340000D02*
G75*
G03*
X129870000Y-81640000I0J-300000D01*
G01*
X133520000Y-81740000D02*
G75*
G02*
X133220000Y-82040000I-300000J0D01*
G01*
X134720000Y-81740000D02*
X134720000Y-81590000D01*
X129270000Y-81640000D02*
G75*
G03*
X128970000Y-81340000I-300000J0D01*
G01*
X130770000Y-82040000D02*
G75*
G02*
X130470000Y-81740000I0J300000D01*
G01*
X128970000Y-81340000D02*
G75*
G03*
X128670000Y-81640000I0J-300000D01*
G01*
X129570000Y-82040000D02*
G75*
G02*
X129270000Y-81740000I0J300000D01*
G01*
X138020000Y-82040000D02*
G75*
G02*
X137720000Y-81740000I0J300000D01*
G01*
X129870000Y-81740000D02*
X129870000Y-81640000D01*
X135620000Y-82040000D02*
G75*
G02*
X135320000Y-81740000I0J300000D01*
G01*
X134720000Y-81740000D02*
G75*
G02*
X134420000Y-82040000I-300000J0D01*
G01*
X128070000Y-81640000D02*
G75*
G03*
X127770000Y-81340000I-300000J0D01*
G01*
X128370000Y-82040000D02*
G75*
G02*
X128070000Y-81740000I0J300000D01*
G01*
X134120000Y-81590000D02*
G75*
G03*
X133820000Y-81290000I-300000J0D01*
G01*
X127770000Y-81340000D02*
G75*
G03*
X127470000Y-81640000I0J-300000D01*
G01*
X135920000Y-81740000D02*
G75*
G02*
X135620000Y-82040000I-300000J0D01*
G01*
X132270000Y-81740000D02*
X132270000Y-81640000D01*
X130470000Y-81640000D02*
X130470000Y-81740000D01*
X131370000Y-81340000D02*
G75*
G03*
X131070000Y-81640000I0J-300000D01*
G01*
X136520000Y-81590000D02*
G75*
G03*
X136220000Y-81290000I-300000J0D01*
G01*
X131670000Y-81640000D02*
G75*
G03*
X131370000Y-81340000I-300000J0D01*
G01*
X127470000Y-81740000D02*
X127470000Y-81640000D01*
X138320000Y-81740000D02*
G75*
G02*
X138020000Y-82040000I-300000J0D01*
G01*
X131970000Y-82040000D02*
G75*
G02*
X131670000Y-81740000I0J300000D01*
G01*
X128670000Y-81740000D02*
X128670000Y-81640000D01*
X137720000Y-81590000D02*
G75*
G03*
X137420000Y-81290000I-300000J0D01*
G01*
X129270000Y-81640000D02*
X129270000Y-81740000D01*
X132870000Y-81640000D02*
G75*
G03*
X132570000Y-81340000I-300000J0D01*
G01*
X131070000Y-81740000D02*
G75*
G02*
X130770000Y-82040000I-300000J0D01*
G01*
X137120000Y-81740000D02*
G75*
G02*
X136820000Y-82040000I-300000J0D01*
G01*
X133170000Y-82040000D02*
G75*
G02*
X132870000Y-81740000I0J300000D01*
G01*
X134420000Y-82040000D02*
G75*
G02*
X134120000Y-81740000I0J300000D01*
G01*
X135320000Y-81590000D02*
G75*
G03*
X135020000Y-81290000I-300000J0D01*
G01*
X135020000Y-81290000D02*
G75*
G03*
X134720000Y-81590000I0J-300000D01*
G01*
X131070000Y-81740000D02*
X131070000Y-81640000D01*
X138320000Y-81740000D02*
X138320000Y-81590000D01*
X138920000Y-81590000D02*
X138920000Y-81740000D01*
X139220000Y-82040000D02*
X139270000Y-82040000D01*
X136520000Y-80790000D02*
X136520000Y-80940000D01*
X128120000Y-80790000D02*
G75*
G03*
X127820000Y-80490000I-300000J0D01*
G01*
X134120000Y-80790000D02*
X134120000Y-80940000D01*
X135920000Y-80940000D02*
X135920000Y-80790000D01*
X130520000Y-80790000D02*
X130520000Y-80940000D01*
X133520000Y-80940000D02*
X133520000Y-80790000D01*
X128120000Y-80790000D02*
X128120000Y-80940000D01*
X129920000Y-80940000D02*
X129920000Y-80790000D01*
X128720000Y-80940000D02*
X128720000Y-80790000D01*
X134720000Y-80940000D02*
X134720000Y-80790000D01*
X127520000Y-80940000D02*
X127520000Y-80790000D01*
X139220000Y-81240000D02*
G75*
G02*
X138920000Y-80940000I0J300000D01*
G01*
X134720000Y-80940000D02*
G75*
G02*
X134420000Y-81240000I-300000J0D01*
G01*
X138920000Y-80790000D02*
G75*
G03*
X138620000Y-80490000I-300000J0D01*
G01*
X136820000Y-81240000D02*
G75*
G02*
X136520000Y-80940000I0J300000D01*
G01*
X131420000Y-80490000D02*
G75*
G03*
X131120000Y-80790000I0J-300000D01*
G01*
X138620000Y-80490000D02*
G75*
G03*
X138320000Y-80790000I0J-300000D01*
G01*
X137720000Y-80790000D02*
G75*
G03*
X137420000Y-80490000I-300000J0D01*
G01*
X132920000Y-80790000D02*
X132920000Y-80940000D01*
X132320000Y-80940000D02*
G75*
G02*
X132020000Y-81240000I-300000J0D01*
G01*
X137420000Y-80490000D02*
G75*
G03*
X137120000Y-80790000I0J-300000D01*
G01*
X137120000Y-80940000D02*
G75*
G02*
X136820000Y-81240000I-300000J0D01*
G01*
X136220000Y-80490000D02*
G75*
G03*
X135920000Y-80790000I0J-300000D01*
G01*
X132020000Y-81240000D02*
G75*
G02*
X131720000Y-80940000I0J300000D01*
G01*
X135620000Y-81240000D02*
G75*
G02*
X135320000Y-80940000I0J300000D01*
G01*
X138020000Y-81240000D02*
G75*
G02*
X137720000Y-80940000I0J300000D01*
G01*
X129320000Y-80790000D02*
G75*
G03*
X129020000Y-80490000I-300000J0D01*
G01*
X130220000Y-80490000D02*
G75*
G03*
X129920000Y-80790000I0J-300000D01*
G01*
X135320000Y-80790000D02*
X135320000Y-80940000D01*
X129620000Y-81240000D02*
G75*
G02*
X129320000Y-80940000I0J300000D01*
G01*
X131120000Y-80940000D02*
G75*
G02*
X130820000Y-81240000I-300000J0D01*
G01*
X132920000Y-80790000D02*
G75*
G03*
X132620000Y-80490000I-300000J0D01*
G01*
X133220000Y-81240000D02*
G75*
G02*
X132920000Y-80940000I0J300000D01*
G01*
X135320000Y-80790000D02*
G75*
G03*
X135020000Y-80490000I-300000J0D01*
G01*
X130520000Y-80790000D02*
G75*
G03*
X130220000Y-80490000I-300000J0D01*
G01*
X123290000Y-81240000D02*
X127220000Y-81240000D01*
X128720000Y-80940000D02*
G75*
G02*
X128420000Y-81240000I-300000J0D01*
G01*
X139220000Y-81240000D02*
X139270000Y-81240000D01*
X131720000Y-80790000D02*
G75*
G03*
X131420000Y-80490000I-300000J0D01*
G01*
X132320000Y-80940000D02*
X132320000Y-80790000D01*
X129920000Y-80940000D02*
G75*
G02*
X129620000Y-81240000I-300000J0D01*
G01*
X122000000Y-79950000D02*
X123290000Y-81240000D01*
X129320000Y-80790000D02*
X129320000Y-80940000D01*
X135920000Y-80940000D02*
G75*
G02*
X135620000Y-81240000I-300000J0D01*
G01*
X128420000Y-81240000D02*
G75*
G02*
X128120000Y-80940000I0J300000D01*
G01*
X129020000Y-80490000D02*
G75*
G03*
X128720000Y-80790000I0J-300000D01*
G01*
X131720000Y-80790000D02*
X131720000Y-80940000D01*
X134120000Y-80790000D02*
G75*
G03*
X133820000Y-80490000I-300000J0D01*
G01*
X127820000Y-80490000D02*
G75*
G03*
X127520000Y-80790000I0J-300000D01*
G01*
X127520000Y-80940000D02*
G75*
G02*
X127220000Y-81240000I-300000J0D01*
G01*
X132620000Y-80490000D02*
G75*
G03*
X132320000Y-80790000I0J-300000D01*
G01*
X131120000Y-80940000D02*
X131120000Y-80790000D01*
X136520000Y-80790000D02*
G75*
G03*
X136220000Y-80490000I-300000J0D01*
G01*
X133520000Y-80940000D02*
G75*
G02*
X133220000Y-81240000I-300000J0D01*
G01*
X133820000Y-80490000D02*
G75*
G03*
X133520000Y-80790000I0J-300000D01*
G01*
X137120000Y-80940000D02*
X137120000Y-80790000D01*
X134420000Y-81240000D02*
G75*
G02*
X134120000Y-80940000I0J300000D01*
G01*
X130820000Y-81240000D02*
G75*
G02*
X130520000Y-80940000I0J300000D01*
G01*
X138320000Y-80940000D02*
G75*
G02*
X138020000Y-81240000I-300000J0D01*
G01*
X135020000Y-80490000D02*
G75*
G03*
X134720000Y-80790000I0J-300000D01*
G01*
X137720000Y-80790000D02*
X137720000Y-80940000D01*
X138920000Y-80790000D02*
X138920000Y-80940000D01*
X138320000Y-80940000D02*
X138320000Y-80790000D01*
X139270000Y-81240000D02*
X140135000Y-81240000D01*
X136540000Y-79990000D02*
X136540000Y-80140000D01*
X135940000Y-80140000D02*
X135940000Y-79990000D01*
X133540000Y-80140000D02*
X133540000Y-79990000D01*
X138640000Y-79690000D02*
G75*
G03*
X138340000Y-79990000I0J-300000D01*
G01*
X132940000Y-80040000D02*
X132940000Y-80140000D01*
X131140000Y-80140000D02*
X131140000Y-80040000D01*
X135040000Y-79690000D02*
G75*
G03*
X134740000Y-79990000I0J-300000D01*
G01*
X129340000Y-80040000D02*
X129340000Y-80140000D01*
X128140000Y-80040000D02*
X128140000Y-80140000D01*
X129640000Y-80440000D02*
G75*
G02*
X129340000Y-80140000I0J300000D01*
G01*
X126830000Y-80440000D02*
X127240000Y-80440000D01*
X130840000Y-80440000D02*
G75*
G02*
X130540000Y-80140000I0J300000D01*
G01*
X126340000Y-79950000D02*
X126830000Y-80440000D01*
X130540000Y-80040000D02*
X130540000Y-80140000D01*
X139240000Y-80440000D02*
G75*
G02*
X138940000Y-80140000I0J300000D01*
G01*
X128740000Y-80140000D02*
X128740000Y-80040000D01*
X127540000Y-80140000D02*
X127540000Y-80040000D01*
X138940000Y-79990000D02*
G75*
G03*
X138640000Y-79690000I-300000J0D01*
G01*
X132040000Y-80440000D02*
G75*
G02*
X131740000Y-80140000I0J300000D01*
G01*
X132340000Y-80140000D02*
X132340000Y-80040000D01*
X138340000Y-80140000D02*
G75*
G02*
X138040000Y-80440000I-300000J0D01*
G01*
X137740000Y-79990000D02*
G75*
G03*
X137440000Y-79690000I-300000J0D01*
G01*
X134140000Y-79990000D02*
X134140000Y-80140000D01*
X137440000Y-79690000D02*
G75*
G03*
X137140000Y-79990000I0J-300000D01*
G01*
X138940000Y-79990000D02*
X138940000Y-80140000D01*
X137140000Y-80140000D02*
G75*
G02*
X136840000Y-80440000I-300000J0D01*
G01*
X134440000Y-80440000D02*
G75*
G02*
X134140000Y-80140000I0J300000D01*
G01*
X136840000Y-80440000D02*
G75*
G02*
X136540000Y-80140000I0J300000D01*
G01*
X136540000Y-79990000D02*
G75*
G03*
X136240000Y-79690000I-300000J0D01*
G01*
X129940000Y-80140000D02*
X129940000Y-80040000D01*
X136240000Y-79690000D02*
G75*
G03*
X135940000Y-79990000I0J-300000D01*
G01*
X133540000Y-80140000D02*
G75*
G02*
X133240000Y-80440000I-300000J0D01*
G01*
X129040000Y-79740000D02*
G75*
G03*
X128740000Y-80040000I0J-300000D01*
G01*
X135340000Y-79990000D02*
X135340000Y-80140000D01*
X132340000Y-80140000D02*
G75*
G02*
X132040000Y-80440000I-300000J0D01*
G01*
X127840000Y-79740000D02*
G75*
G03*
X127540000Y-80040000I0J-300000D01*
G01*
X131740000Y-80040000D02*
X131740000Y-80140000D01*
X130240000Y-79740000D02*
G75*
G03*
X129940000Y-80040000I0J-300000D01*
G01*
X134740000Y-80140000D02*
G75*
G02*
X134440000Y-80440000I-300000J0D01*
G01*
X133840000Y-79690000D02*
G75*
G03*
X133540000Y-79990000I0J-300000D01*
G01*
X128740000Y-80140000D02*
G75*
G02*
X128440000Y-80440000I-300000J0D01*
G01*
X128440000Y-80440000D02*
G75*
G02*
X128140000Y-80140000I0J300000D01*
G01*
X128140000Y-80040000D02*
G75*
G03*
X127840000Y-79740000I-300000J0D01*
G01*
X139240000Y-80440000D02*
X139290000Y-80440000D01*
X131440000Y-79740000D02*
G75*
G03*
X131140000Y-80040000I0J-300000D01*
G01*
X131740000Y-80040000D02*
G75*
G03*
X131440000Y-79740000I-300000J0D01*
G01*
X138040000Y-80440000D02*
G75*
G02*
X137740000Y-80140000I0J300000D01*
G01*
X135940000Y-80140000D02*
G75*
G02*
X135640000Y-80440000I-300000J0D01*
G01*
X127540000Y-80140000D02*
G75*
G02*
X127240000Y-80440000I-300000J0D01*
G01*
X134740000Y-80140000D02*
X134740000Y-79990000D01*
X129340000Y-80040000D02*
G75*
G03*
X129040000Y-79740000I-300000J0D01*
G01*
X132640000Y-79740000D02*
G75*
G03*
X132340000Y-80040000I0J-300000D01*
G01*
X130540000Y-80040000D02*
G75*
G03*
X130240000Y-79740000I-300000J0D01*
G01*
X132940000Y-80040000D02*
G75*
G03*
X132640000Y-79740000I-300000J0D01*
G01*
X135340000Y-79990000D02*
G75*
G03*
X135040000Y-79690000I-300000J0D01*
G01*
X124540000Y-79950000D02*
X126340000Y-79950000D01*
X133240000Y-80440000D02*
G75*
G02*
X132940000Y-80140000I0J300000D01*
G01*
X134140000Y-79990000D02*
G75*
G03*
X133840000Y-79690000I-300000J0D01*
G01*
X135640000Y-80440000D02*
G75*
G02*
X135340000Y-80140000I0J300000D01*
G01*
X131140000Y-80140000D02*
G75*
G02*
X130840000Y-80440000I-300000J0D01*
G01*
X139290000Y-80440000D02*
X140135000Y-80440000D01*
X129940000Y-80140000D02*
G75*
G02*
X129640000Y-80440000I-300000J0D01*
G01*
X137140000Y-80140000D02*
X137140000Y-79990000D01*
X137740000Y-79990000D02*
X137740000Y-80140000D01*
X138340000Y-80140000D02*
X138340000Y-79990000D01*
X134120000Y-78940000D02*
X134120000Y-79340000D01*
X133170000Y-79640000D02*
X133220000Y-79640000D01*
X132870000Y-78940000D02*
X132870000Y-79340000D01*
X129870000Y-79340000D02*
X129870000Y-78940000D01*
X137720000Y-78940000D02*
G75*
G03*
X137420000Y-78640000I-300000J0D01*
G01*
X131070000Y-79340000D02*
X131070000Y-78940000D01*
X129270000Y-78940000D02*
X129270000Y-79340000D01*
X128070000Y-78940000D02*
X128070000Y-79340000D01*
X128370000Y-79640000D02*
G75*
G02*
X128070000Y-79340000I0J300000D01*
G01*
X126940000Y-79640000D02*
X127170000Y-79640000D01*
X133520000Y-79340000D02*
X133520000Y-78940000D01*
X122000000Y-77410000D02*
X123280000Y-78690000D01*
X139220000Y-79640000D02*
G75*
G02*
X138920000Y-79340000I0J300000D01*
G01*
X132870000Y-78940000D02*
G75*
G03*
X132570000Y-78640000I-300000J0D01*
G01*
X138920000Y-78940000D02*
G75*
G03*
X138620000Y-78640000I-300000J0D01*
G01*
X135920000Y-79340000D02*
G75*
G02*
X135620000Y-79640000I-300000J0D01*
G01*
X138620000Y-78640000D02*
G75*
G03*
X138320000Y-78940000I0J-300000D01*
G01*
X139220000Y-79640000D02*
X139270000Y-79640000D01*
X138320000Y-79340000D02*
G75*
G02*
X138020000Y-79640000I-300000J0D01*
G01*
X128670000Y-79340000D02*
X128670000Y-78940000D01*
X127470000Y-79340000D02*
X127470000Y-78940000D01*
X137420000Y-78640000D02*
G75*
G03*
X137120000Y-78940000I0J-300000D01*
G01*
X136520000Y-78940000D02*
G75*
G03*
X136220000Y-78640000I-300000J0D01*
G01*
X137120000Y-79340000D02*
G75*
G02*
X136820000Y-79640000I-300000J0D01*
G01*
X130170000Y-78640000D02*
G75*
G03*
X129870000Y-78940000I0J-300000D01*
G01*
X123280000Y-78690000D02*
X125990000Y-78690000D01*
X127770000Y-78640000D02*
G75*
G03*
X127470000Y-78940000I0J-300000D01*
G01*
X130470000Y-78940000D02*
G75*
G03*
X130170000Y-78640000I-300000J0D01*
G01*
X134720000Y-79340000D02*
G75*
G02*
X134420000Y-79640000I-300000J0D01*
G01*
X128670000Y-79340000D02*
G75*
G02*
X128370000Y-79640000I-300000J0D01*
G01*
X131670000Y-78940000D02*
G75*
G03*
X131370000Y-78640000I-300000J0D01*
G01*
X128970000Y-78640000D02*
G75*
G03*
X128670000Y-78940000I0J-300000D01*
G01*
X134120000Y-78940000D02*
G75*
G03*
X133820000Y-78640000I-300000J0D01*
G01*
X131070000Y-79340000D02*
G75*
G02*
X130770000Y-79640000I-300000J0D01*
G01*
X135320000Y-78940000D02*
X135320000Y-79340000D01*
X134720000Y-79340000D02*
X134720000Y-78940000D01*
X131370000Y-78640000D02*
G75*
G03*
X131070000Y-78940000I0J-300000D01*
G01*
X135020000Y-78640000D02*
G75*
G03*
X134720000Y-78940000I0J-300000D01*
G01*
X129870000Y-79340000D02*
G75*
G02*
X129570000Y-79640000I-300000J0D01*
G01*
X136820000Y-79640000D02*
G75*
G02*
X136520000Y-79340000I0J300000D01*
G01*
X131970000Y-79640000D02*
G75*
G02*
X131670000Y-79340000I0J300000D01*
G01*
X129570000Y-79640000D02*
G75*
G02*
X129270000Y-79340000I0J300000D01*
G01*
X135320000Y-78940000D02*
G75*
G03*
X135020000Y-78640000I-300000J0D01*
G01*
X128070000Y-78940000D02*
G75*
G03*
X127770000Y-78640000I-300000J0D01*
G01*
X138320000Y-79340000D02*
X138320000Y-78940000D01*
X131670000Y-78940000D02*
X131670000Y-79340000D01*
X125990000Y-78690000D02*
X126940000Y-79640000D01*
X127470000Y-79340000D02*
G75*
G02*
X127170000Y-79640000I-300000J0D01*
G01*
X132270000Y-79340000D02*
X132270000Y-78940000D01*
X137720000Y-78940000D02*
X137720000Y-79340000D01*
X133520000Y-79340000D02*
G75*
G02*
X133220000Y-79640000I-300000J0D01*
G01*
X130770000Y-79640000D02*
G75*
G02*
X130470000Y-79340000I0J300000D01*
G01*
X132570000Y-78640000D02*
G75*
G03*
X132270000Y-78940000I0J-300000D01*
G01*
X136220000Y-78640000D02*
G75*
G03*
X135920000Y-78940000I0J-300000D01*
G01*
X130470000Y-78940000D02*
X130470000Y-79340000D01*
X133170000Y-79640000D02*
G75*
G02*
X132870000Y-79340000I0J300000D01*
G01*
X134420000Y-79640000D02*
G75*
G02*
X134120000Y-79340000I0J300000D01*
G01*
X138020000Y-79640000D02*
G75*
G02*
X137720000Y-79340000I0J300000D01*
G01*
X132270000Y-79340000D02*
G75*
G02*
X131970000Y-79640000I-300000J0D01*
G01*
X129270000Y-78940000D02*
G75*
G03*
X128970000Y-78640000I-300000J0D01*
G01*
X133820000Y-78640000D02*
G75*
G03*
X133520000Y-78940000I0J-300000D01*
G01*
X135620000Y-79640000D02*
G75*
G02*
X135320000Y-79340000I0J300000D01*
G01*
X135920000Y-79340000D02*
X135920000Y-78940000D01*
X136520000Y-78940000D02*
X136520000Y-79340000D01*
X137120000Y-79340000D02*
X137120000Y-78940000D01*
X138920000Y-78940000D02*
X138920000Y-79340000D01*
X139270000Y-79640000D02*
X140135000Y-79640000D01*
X129060000Y-65280000D02*
X129060000Y-66680000D01*
X128460000Y-66680000D02*
X128460000Y-65280000D01*
X132060000Y-66680000D02*
X132060000Y-65280000D01*
X127260000Y-65680000D02*
X127260000Y-65280000D01*
X130260000Y-65280000D02*
X130260000Y-66680000D01*
X132960000Y-65980000D02*
G75*
G02*
X132660000Y-65680000I0J300000D01*
G01*
X127860000Y-65280000D02*
G75*
G03*
X127560000Y-64980000I-300000J0D01*
G01*
X132660000Y-65280000D02*
G75*
G03*
X132360000Y-64980000I-300000J0D01*
G01*
X132360000Y-64980000D02*
G75*
G03*
X132060000Y-65280000I0J-300000D01*
G01*
X131460000Y-65280000D02*
G75*
G03*
X131160000Y-64980000I-300000J0D01*
G01*
X131160000Y-64980000D02*
G75*
G03*
X130860000Y-65280000I0J-300000D01*
G01*
X127860000Y-65280000D02*
X127860000Y-66680000D01*
X132660000Y-65280000D02*
X132660000Y-65680000D01*
X127560000Y-64980000D02*
G75*
G03*
X127260000Y-65280000I0J-300000D01*
G01*
X128160000Y-66980000D02*
G75*
G02*
X127860000Y-66680000I0J300000D01*
G01*
X127260000Y-65680000D02*
G75*
G02*
X126960000Y-65980000I-300000J0D01*
G01*
X131760000Y-66980000D02*
G75*
G02*
X131460000Y-66680000I0J300000D01*
G01*
X133700000Y-65240000D02*
X140135000Y-65240000D01*
X128760000Y-64980000D02*
G75*
G03*
X128460000Y-65280000I0J-300000D01*
G01*
X130860000Y-66680000D02*
X130860000Y-65280000D01*
X122000000Y-64710000D02*
X123270000Y-65980000D01*
X129960000Y-64980000D02*
G75*
G03*
X129660000Y-65280000I0J-300000D01*
G01*
X131460000Y-65280000D02*
X131460000Y-66680000D01*
X132060000Y-66680000D02*
G75*
G02*
X131760000Y-66980000I-300000J0D01*
G01*
X128460000Y-66680000D02*
G75*
G02*
X128160000Y-66980000I-300000J0D01*
G01*
X129360000Y-66980000D02*
G75*
G02*
X129060000Y-66680000I0J300000D01*
G01*
X130260000Y-65280000D02*
G75*
G03*
X129960000Y-64980000I-300000J0D01*
G01*
X129660000Y-66680000D02*
X129660000Y-65280000D01*
X129660000Y-66680000D02*
G75*
G02*
X129360000Y-66980000I-300000J0D01*
G01*
X130560000Y-66980000D02*
G75*
G02*
X130260000Y-66680000I0J300000D01*
G01*
X129060000Y-65280000D02*
G75*
G03*
X128760000Y-64980000I-300000J0D01*
G01*
X123270000Y-65980000D02*
X126960000Y-65980000D01*
X130860000Y-66680000D02*
G75*
G02*
X130560000Y-66980000I-300000J0D01*
G01*
X132960000Y-65980000D02*
X133700000Y-65240000D01*
X130580000Y-71760000D02*
X130580000Y-70360000D01*
X127580000Y-70360000D02*
G75*
G03*
X127280000Y-70060000I-300000J0D01*
G01*
X128180000Y-71760000D02*
X128180000Y-70360000D01*
X123270000Y-71060000D02*
X126680000Y-71060000D01*
X128480000Y-70060000D02*
G75*
G03*
X128180000Y-70360000I0J-300000D01*
G01*
X122000000Y-69790000D02*
X123270000Y-71060000D01*
X127880000Y-72060000D02*
G75*
G02*
X127580000Y-71760000I0J300000D01*
G01*
X126980000Y-70760000D02*
X126980000Y-70360000D01*
X131780000Y-71760000D02*
G75*
G02*
X131480000Y-72060000I-300000J0D01*
G01*
X129380000Y-71760000D02*
X129380000Y-70360000D01*
X131480000Y-72060000D02*
G75*
G02*
X131180000Y-71760000I0J300000D01*
G01*
X128780000Y-70360000D02*
G75*
G03*
X128480000Y-70060000I-300000J0D01*
G01*
X131180000Y-70360000D02*
G75*
G03*
X130880000Y-70060000I-300000J0D01*
G01*
X126980000Y-70760000D02*
G75*
G02*
X126680000Y-71060000I-300000J0D01*
G01*
X130280000Y-72060000D02*
G75*
G02*
X129980000Y-71760000I0J300000D01*
G01*
X127280000Y-70060000D02*
G75*
G03*
X126980000Y-70360000I0J-300000D01*
G01*
X129980000Y-70360000D02*
X129980000Y-71760000D01*
X129980000Y-70360000D02*
G75*
G03*
X129680000Y-70060000I-300000J0D01*
G01*
X128180000Y-71760000D02*
G75*
G02*
X127880000Y-72060000I-300000J0D01*
G01*
X129680000Y-70060000D02*
G75*
G03*
X129380000Y-70360000I0J-300000D01*
G01*
X127580000Y-70360000D02*
X127580000Y-71760000D01*
X130880000Y-70060000D02*
G75*
G03*
X130580000Y-70360000I0J-300000D01*
G01*
X129080000Y-72060000D02*
G75*
G02*
X128780000Y-71760000I0J300000D01*
G01*
X129380000Y-71760000D02*
G75*
G02*
X129080000Y-72060000I-300000J0D01*
G01*
X128780000Y-70360000D02*
X128780000Y-71760000D01*
X130580000Y-71760000D02*
G75*
G02*
X130280000Y-72060000I-300000J0D01*
G01*
X131180000Y-70360000D02*
X131180000Y-71760000D01*
X132680000Y-71060000D02*
X133700000Y-70040000D01*
X133700000Y-70040000D02*
X140135000Y-70040000D01*
X130440000Y-74300000D02*
X130440000Y-72900000D01*
X131340000Y-74600000D02*
G75*
G02*
X131040000Y-74300000I0J300000D01*
G01*
X128640000Y-72900000D02*
X128640000Y-74300000D01*
X132540000Y-73600000D02*
G75*
G02*
X132240000Y-73300000I0J300000D01*
G01*
X123270000Y-73600000D02*
X126540000Y-73600000D01*
X131940000Y-72600000D02*
G75*
G03*
X131640000Y-72900000I0J-300000D01*
G01*
X131640000Y-74300000D02*
G75*
G02*
X131340000Y-74600000I-300000J0D01*
G01*
X131040000Y-72900000D02*
G75*
G03*
X130740000Y-72600000I-300000J0D01*
G01*
X126840000Y-73300000D02*
G75*
G02*
X126540000Y-73600000I-300000J0D01*
G01*
X130140000Y-74600000D02*
G75*
G02*
X129840000Y-74300000I0J300000D01*
G01*
X128640000Y-72900000D02*
G75*
G03*
X128340000Y-72600000I-300000J0D01*
G01*
X127740000Y-74600000D02*
G75*
G02*
X127440000Y-74300000I0J300000D01*
G01*
X132240000Y-72900000D02*
G75*
G03*
X131940000Y-72600000I-300000J0D01*
G01*
X129240000Y-74300000D02*
G75*
G02*
X128940000Y-74600000I-300000J0D01*
G01*
X128940000Y-74600000D02*
G75*
G02*
X128640000Y-74300000I0J300000D01*
G01*
X130740000Y-72600000D02*
G75*
G03*
X130440000Y-72900000I0J-300000D01*
G01*
X127440000Y-72900000D02*
G75*
G03*
X127140000Y-72600000I-300000J0D01*
G01*
X128040000Y-74300000D02*
X128040000Y-72900000D01*
X122000000Y-72330000D02*
X123270000Y-73600000D01*
X128340000Y-72600000D02*
G75*
G03*
X128040000Y-72900000I0J-300000D01*
G01*
X132540000Y-73600000D02*
X133700000Y-72440000D01*
X129840000Y-72900000D02*
X129840000Y-74300000D01*
X129240000Y-74300000D02*
X129240000Y-72900000D01*
X127440000Y-72900000D02*
X127440000Y-74300000D01*
X127140000Y-72600000D02*
G75*
G03*
X126840000Y-72900000I0J-300000D01*
G01*
X128040000Y-74300000D02*
G75*
G02*
X127740000Y-74600000I-300000J0D01*
G01*
X129540000Y-72600000D02*
G75*
G03*
X129240000Y-72900000I0J-300000D01*
G01*
X126840000Y-73300000D02*
X126840000Y-72900000D01*
X130440000Y-74300000D02*
G75*
G02*
X130140000Y-74600000I-300000J0D01*
G01*
X131640000Y-74300000D02*
X131640000Y-72900000D01*
X129840000Y-72900000D02*
G75*
G03*
X129540000Y-72600000I-300000J0D01*
G01*
X131040000Y-72900000D02*
X131040000Y-74300000D01*
X132240000Y-72900000D02*
X132240000Y-73300000D01*
X133700000Y-72440000D02*
X140135000Y-72440000D01*
D17*
X151635000Y-77240000D02*
X150305000Y-77240000D01*
X151635000Y-84440000D02*
X150315000Y-84440000D01*
X150325000Y-83640000D02*
X150315000Y-83630000D01*
X151635000Y-83640000D02*
X150325000Y-83640000D01*
X151635000Y-82840000D02*
X150315000Y-82840000D01*
X151635000Y-82040000D02*
X150315000Y-82040000D01*
X151635000Y-81240000D02*
X150315000Y-81240000D01*
X151635000Y-80440000D02*
X150315000Y-80440000D01*
X151635000Y-79640000D02*
X150315000Y-79640000D01*
X151635000Y-78840000D02*
X150315000Y-78840000D01*
D16*
X151635000Y-78040000D02*
X150305000Y-78040000D01*
X151635000Y-76440000D02*
X150315000Y-76440000D01*
X151635000Y-72440000D02*
X150315000Y-72440000D01*
X151635000Y-65240000D02*
X150325000Y-65240000D01*
X151635000Y-70040000D02*
X150315000Y-70040000D01*
X151635000Y-67640000D02*
X150325000Y-67640000D01*
D17*
X141435000Y-66040000D02*
X141445000Y-66030000D01*
X140135000Y-66040000D02*
X141435000Y-66040000D01*
X151635000Y-64440000D02*
X150315000Y-64440000D01*
X151635000Y-66040000D02*
X150315000Y-66040000D01*
X151635000Y-68440000D02*
X150315000Y-68440000D01*
X151635000Y-70840000D02*
X150315000Y-70840000D01*
X151635000Y-73240000D02*
X150315000Y-73240000D01*
X151635000Y-74840000D02*
X150315000Y-74840000D01*
X151635000Y-85240000D02*
X150315000Y-85240000D01*
X140135000Y-85240000D02*
X141465000Y-85240000D01*
X140135000Y-78840000D02*
X141455000Y-78840000D01*
X140135000Y-74840000D02*
X141465000Y-74840000D01*
X140135000Y-70840000D02*
X141465000Y-70840000D01*
X140135000Y-73240000D02*
X141455000Y-73240000D01*
X140135000Y-68440000D02*
X141455000Y-68440000D01*
X140135000Y-64440000D02*
X141445000Y-64440000D01*
M02*
