G04 #@! TF.GenerationSoftware,KiCad,Pcbnew,6.0.1*
G04 #@! TF.CreationDate,2022-02-15T02:13:10-08:00*
G04 #@! TF.ProjectId,iCE40-SDRAM,69434534-302d-4534-9452-414d2e6b6963,rev?*
G04 #@! TF.SameCoordinates,Original*
G04 #@! TF.FileFunction,Copper,L4,Bot*
G04 #@! TF.FilePolarity,Positive*
%FSLAX46Y46*%
G04 Gerber Fmt 4.6, Leading zero omitted, Abs format (unit mm)*
G04 Created by KiCad (PCBNEW 6.0.1) date 2022-02-15 02:13:10*
%MOMM*%
%LPD*%
G01*
G04 APERTURE LIST*
G04 Aperture macros list*
%AMRoundRect*
0 Rectangle with rounded corners*
0 $1 Rounding radius*
0 $2 $3 $4 $5 $6 $7 $8 $9 X,Y pos of 4 corners*
0 Add a 4 corners polygon primitive as box body*
4,1,4,$2,$3,$4,$5,$6,$7,$8,$9,$2,$3,0*
0 Add four circle primitives for the rounded corners*
1,1,$1+$1,$2,$3*
1,1,$1+$1,$4,$5*
1,1,$1+$1,$6,$7*
1,1,$1+$1,$8,$9*
0 Add four rect primitives between the rounded corners*
20,1,$1+$1,$2,$3,$4,$5,0*
20,1,$1+$1,$4,$5,$6,$7,0*
20,1,$1+$1,$6,$7,$8,$9,0*
20,1,$1+$1,$8,$9,$2,$3,0*%
G04 Aperture macros list end*
G04 #@! TA.AperFunction,SMDPad,CuDef*
%ADD10RoundRect,0.237500X-0.237500X0.300000X-0.237500X-0.300000X0.237500X-0.300000X0.237500X0.300000X0*%
G04 #@! TD*
G04 #@! TA.AperFunction,SMDPad,CuDef*
%ADD11RoundRect,0.237500X0.237500X-0.300000X0.237500X0.300000X-0.237500X0.300000X-0.237500X-0.300000X0*%
G04 #@! TD*
G04 #@! TA.AperFunction,ComponentPad*
%ADD12O,1.700000X1.700000*%
G04 #@! TD*
G04 #@! TA.AperFunction,ComponentPad*
%ADD13R,1.700000X1.700000*%
G04 #@! TD*
G04 #@! TA.AperFunction,ViaPad*
%ADD14C,0.600000*%
G04 #@! TD*
G04 #@! TA.AperFunction,Conductor*
%ADD15C,0.127000*%
G04 #@! TD*
G04 #@! TA.AperFunction,Conductor*
%ADD16C,0.254000*%
G04 #@! TD*
G04 APERTURE END LIST*
D10*
X149245000Y-73367500D03*
X149245000Y-75092500D03*
D11*
X142535000Y-75072500D03*
X142535000Y-73347500D03*
X149245000Y-68502500D03*
X149245000Y-66777500D03*
D10*
X142525000Y-68500000D03*
X142525000Y-66775000D03*
D12*
X122000000Y-95190000D03*
X124540000Y-95190000D03*
X122000000Y-92650000D03*
X124540000Y-92650000D03*
X122000000Y-90110000D03*
X124540000Y-90110000D03*
X122000000Y-87570000D03*
X124540000Y-87570000D03*
X122000000Y-85030000D03*
X124540000Y-85030000D03*
X122000000Y-82490000D03*
X124540000Y-82490000D03*
X122000000Y-79950000D03*
X124540000Y-79950000D03*
X122000000Y-77410000D03*
X124540000Y-77410000D03*
X122000000Y-74870000D03*
X124540000Y-74870000D03*
X122000000Y-72330000D03*
X124540000Y-72330000D03*
X122000000Y-69790000D03*
X124540000Y-69790000D03*
X122000000Y-67250000D03*
X124540000Y-67250000D03*
X122000000Y-64710000D03*
X124540000Y-64710000D03*
X122000000Y-62170000D03*
X124540000Y-62170000D03*
X122000000Y-59630000D03*
X124540000Y-59630000D03*
X122000000Y-57090000D03*
X124540000Y-57090000D03*
X122000000Y-54550000D03*
D13*
X124540000Y-54550000D03*
D14*
X136530000Y-86660000D03*
X135420000Y-71230000D03*
X135420000Y-64440000D03*
X130040000Y-57090000D03*
X150315000Y-84440000D03*
X150315000Y-83630000D03*
X150315000Y-82840000D03*
X150315000Y-82040000D03*
X150315000Y-81240000D03*
X150315000Y-80440000D03*
X150315000Y-79640000D03*
X150315000Y-78840000D03*
X150305000Y-78040000D03*
X150315000Y-76440000D03*
X150315000Y-72440000D03*
X150315000Y-70040000D03*
X150325000Y-67640000D03*
X150325000Y-65240000D03*
X141445000Y-66030000D03*
X150315000Y-64440000D03*
X150315000Y-66040000D03*
X150315000Y-68440000D03*
X150315000Y-70840000D03*
X150315000Y-73240000D03*
X150315000Y-74840000D03*
X150315000Y-85240000D03*
X141465000Y-85240000D03*
X141455000Y-78840000D03*
X141465000Y-74840000D03*
X141465000Y-70840000D03*
X141455000Y-73240000D03*
X141455000Y-68440000D03*
X141445000Y-64440000D03*
D15*
X147420000Y-71740000D02*
X147420000Y-72140000D01*
X147946523Y-72440000D02*
X150315000Y-72440000D01*
X146220000Y-72740000D02*
X146220000Y-73140000D01*
X126340000Y-67250000D02*
X131530000Y-72440000D01*
X131530000Y-72440000D02*
X145920000Y-72440000D01*
X146820000Y-73140000D02*
X146820000Y-72740000D01*
X124540000Y-67250000D02*
X126340000Y-67250000D01*
X146820000Y-72740000D02*
X146820000Y-71740000D01*
X147420000Y-71740000D02*
G75*
G03*
X147120000Y-71440000I-300000J0D01*
G01*
X147120000Y-71440000D02*
G75*
G03*
X146820000Y-71740000I0J-300000D01*
G01*
X146820000Y-73140000D02*
G75*
G02*
X146520000Y-73440000I-300000J0D01*
G01*
X147720000Y-72440000D02*
G75*
G02*
X147420000Y-72140000I0J300000D01*
G01*
X146520000Y-73440000D02*
G75*
G02*
X146220000Y-73140000I0J300000D01*
G01*
X146220000Y-72740000D02*
G75*
G03*
X145920000Y-72440000I-300000J0D01*
G01*
X147720000Y-72440000D02*
X147946523Y-72440000D01*
X146840000Y-67340000D02*
X146840000Y-68340000D01*
X147440000Y-68340000D02*
X147440000Y-67940000D01*
X147740000Y-67640000D02*
G75*
G03*
X147440000Y-67940000I0J-300000D01*
G01*
X131810000Y-67640000D02*
X145940000Y-67640000D01*
X146240000Y-67340000D02*
G75*
G02*
X145940000Y-67640000I-300000J0D01*
G01*
X126340000Y-62170000D02*
X131810000Y-67640000D01*
X146840000Y-66940000D02*
X146840000Y-67340000D01*
X124540000Y-62170000D02*
X126340000Y-62170000D01*
X146840000Y-66940000D02*
G75*
G03*
X146540000Y-66640000I-300000J0D01*
G01*
X147440000Y-68340000D02*
G75*
G02*
X147140000Y-68640000I-300000J0D01*
G01*
X147140000Y-68640000D02*
G75*
G02*
X146840000Y-68340000I0J300000D01*
G01*
X146540000Y-66640000D02*
G75*
G03*
X146240000Y-66940000I0J-300000D01*
G01*
X146240000Y-67340000D02*
X146240000Y-66940000D01*
X147740000Y-67640000D02*
X148252930Y-67640000D01*
X148252930Y-67640000D02*
X150325000Y-67640000D01*
X144900000Y-69340000D02*
X144900000Y-69740000D01*
X144900000Y-69340000D02*
G75*
G03*
X144600000Y-69040000I-300000J0D01*
G01*
X144300000Y-70340000D02*
X144300000Y-69340000D01*
X143700000Y-70340000D02*
X143700000Y-70740000D01*
X144600000Y-69040000D02*
G75*
G03*
X144300000Y-69340000I0J-300000D01*
G01*
X144300000Y-70740000D02*
G75*
G02*
X144000000Y-71040000I-300000J0D01*
G01*
X131670000Y-70040000D02*
X143400000Y-70040000D01*
X126340000Y-64710000D02*
X131670000Y-70040000D01*
X145200000Y-70040000D02*
G75*
G02*
X144900000Y-69740000I0J300000D01*
G01*
X144300000Y-70740000D02*
X144300000Y-70340000D01*
X145422918Y-70040000D02*
X150315000Y-70040000D01*
X124540000Y-64710000D02*
X126340000Y-64710000D01*
X144000000Y-71040000D02*
G75*
G02*
X143700000Y-70740000I0J300000D01*
G01*
X143700000Y-70340000D02*
G75*
G03*
X143400000Y-70040000I-300000J0D01*
G01*
X145200000Y-70040000D02*
X145422918Y-70040000D01*
X144810000Y-65940000D02*
X144810000Y-65540000D01*
X144210000Y-64540000D02*
G75*
G03*
X143910000Y-64240000I-300000J0D01*
G01*
X144210000Y-64940000D02*
X144210000Y-65940000D01*
X144210000Y-64540000D02*
X144210000Y-64940000D01*
X131950000Y-65240000D02*
X143310000Y-65240000D01*
X124540000Y-59630000D02*
X126340000Y-59630000D01*
X144510000Y-66240000D02*
G75*
G02*
X144210000Y-65940000I0J300000D01*
G01*
X126340000Y-59630000D02*
X131950000Y-65240000D01*
X143610000Y-64940000D02*
X143610000Y-64540000D01*
X145110000Y-65240000D02*
G75*
G03*
X144810000Y-65540000I0J-300000D01*
G01*
X144810000Y-65940000D02*
G75*
G02*
X144510000Y-66240000I-300000J0D01*
G01*
X145110000Y-65240000D02*
X145561227Y-65240000D01*
X143910000Y-64240000D02*
G75*
G03*
X143610000Y-64540000I0J-300000D01*
G01*
X143610000Y-64940000D02*
G75*
G02*
X143310000Y-65240000I-300000J0D01*
G01*
X145561227Y-65240000D02*
X150325000Y-65240000D01*
X148607500Y-85237500D02*
X149405000Y-84440000D01*
X135500000Y-86030000D02*
X142140000Y-86030000D01*
X148607500Y-85237500D02*
X142932500Y-85237500D01*
X142932500Y-85237500D02*
X142140000Y-86030000D01*
X124540000Y-95190000D02*
X126340000Y-95190000D01*
X126340000Y-95190000D02*
X135500000Y-86030000D01*
X149405000Y-84440000D02*
X150315000Y-84440000D01*
X150315000Y-81240000D02*
X149405000Y-81240000D01*
X134410000Y-82040000D02*
X126340000Y-90110000D01*
X149405000Y-81240000D02*
X148605000Y-82040000D01*
X148605000Y-82040000D02*
X134410000Y-82040000D01*
X126340000Y-90110000D02*
X124540000Y-90110000D01*
X150315000Y-82040000D02*
X149405000Y-82040000D01*
X149405000Y-82040000D02*
X148605000Y-82840000D01*
X148605000Y-82840000D02*
X134880000Y-82840000D01*
X134880000Y-82840000D02*
X126340000Y-91380000D01*
X126340000Y-91380000D02*
X123270000Y-91380000D01*
X123270000Y-91380000D02*
X122000000Y-92650000D01*
X150315000Y-82840000D02*
X149405000Y-82840000D01*
X149405000Y-82840000D02*
X148605000Y-83640000D01*
X148605000Y-83640000D02*
X135350000Y-83640000D01*
X135350000Y-83640000D02*
X126340000Y-92650000D01*
X126340000Y-92650000D02*
X124540000Y-92650000D01*
X150315000Y-83630000D02*
X149405000Y-83630000D01*
X123260000Y-93930000D02*
X122000000Y-95190000D01*
X149405000Y-83630000D02*
X148595000Y-84440000D01*
X148595000Y-84440000D02*
X135830000Y-84440000D01*
X126340000Y-93930000D02*
X123260000Y-93930000D01*
X135830000Y-84440000D02*
X126340000Y-93930000D01*
X150315000Y-80440000D02*
X149405000Y-80440000D01*
X149405000Y-80440000D02*
X148605000Y-81240000D01*
X148605000Y-81240000D02*
X133940000Y-81240000D01*
X133940000Y-81240000D02*
X126340000Y-88840000D01*
X126340000Y-88840000D02*
X123270000Y-88840000D01*
X123270000Y-88840000D02*
X122000000Y-90110000D01*
X124540000Y-87570000D02*
X126340000Y-87570000D01*
X126340000Y-87570000D02*
X133480000Y-80430000D01*
X133480000Y-80430000D02*
X148615000Y-80430000D01*
X148615000Y-80430000D02*
X149405000Y-79640000D01*
X149405000Y-79640000D02*
X150315000Y-79640000D01*
X122000000Y-87570000D02*
X123250000Y-86320000D01*
X123250000Y-86320000D02*
X126340000Y-86320000D01*
X126340000Y-86320000D02*
X133020000Y-79640000D01*
X133020000Y-79640000D02*
X148605000Y-79640000D01*
X148605000Y-79640000D02*
X149405000Y-78840000D01*
X149405000Y-78840000D02*
X150315000Y-78840000D01*
X124540000Y-72330000D02*
X126340000Y-72330000D01*
X126340000Y-72330000D02*
X132050000Y-78040000D01*
X132050000Y-78040000D02*
X150305000Y-78040000D01*
X124540000Y-69790000D02*
X126340000Y-69790000D01*
X126340000Y-69790000D02*
X132990000Y-76440000D01*
X132990000Y-76440000D02*
X150315000Y-76440000D01*
D16*
X150315000Y-74840000D02*
X149497500Y-74840000D01*
X149497500Y-74840000D02*
X149245000Y-75092500D01*
X150315000Y-73240000D02*
X149372500Y-73240000D01*
X149372500Y-73240000D02*
X149245000Y-73367500D01*
X141465000Y-74840000D02*
X142302500Y-74840000D01*
X142302500Y-74840000D02*
X142535000Y-75072500D01*
X141455000Y-73240000D02*
X142427500Y-73240000D01*
X142427500Y-73240000D02*
X142535000Y-73347500D01*
X141445000Y-66030000D02*
X141780000Y-66030000D01*
X141780000Y-66030000D02*
X142525000Y-66775000D01*
X141455000Y-68440000D02*
X142465000Y-68440000D01*
X142465000Y-68440000D02*
X142525000Y-68500000D01*
X150315000Y-68440000D02*
X149307500Y-68440000D01*
X149307500Y-68440000D02*
X149245000Y-68502500D01*
X150315000Y-66040000D02*
X149982500Y-66040000D01*
X149982500Y-66040000D02*
X149245000Y-66777500D01*
M02*
